<?xml version="1.0" standalone="no"?>
<!DOCTYPE svg PUBLIC "-//W3C//DTD SVG 20010904//EN"
 "http://www.w3.org/TR/2001/REC-SVG-20010904/DTD/svg10.dtd">
<svg version="1.0" xmlns="http://www.w3.org/2000/svg"
 width="1504.000000pt" height="844.000000pt" viewBox="0 0 1504.000000 844.000000"
 preserveAspectRatio="xMidYMid meet">
<metadata>
Created by potrace 1.16, written by Peter Selinger 2001-2019
</metadata>
<g transform="translate(0.000000,844.000000) scale(0.100000,-0.100000)"
fill="#000000" stroke="none">
<path d="M13162 8275 c-10 -22 -9 -29 7 -46 11 -12 17 -29 14 -40 -6 -20 -35
-42 -50 -37 -10 4 -13 -5 -13 -32 0 -12 7 -20 16 -20 14 0 14 -2 0 -15 -8 -8
-21 -15 -28 -15 -7 0 -2 -9 12 -20 l25 -20 -32 0 c-18 0 -33 -4 -33 -9 0 -5
-3 -17 -7 -27 -4 -10 -2 -15 3 -11 6 3 15 3 20 -1 15 -10 25 -70 13 -77 -19
-12 -84 -13 -91 -2 -5 8 -8 4 -8 -9 0 -24 33 -42 70 -39 14 2 32 -1 40 -6 11
-6 9 -9 -10 -9 -73 -1 -130 -13 -130 -26 0 -8 5 -14 10 -14 19 0 10 -17 -16
-28 -28 -14 -23 -36 7 -27 15 5 19 1 19 -14 0 -12 5 -21 10 -21 6 0 10 -6 10
-14 0 -8 6 -17 13 -19 6 -3 0 -6 -15 -6 -16 -1 -28 -5 -28 -9 0 -12 54 -40 68
-35 6 3 12 0 12 -6 0 -6 -18 -11 -40 -11 -29 0 -38 3 -34 14 4 10 -6 15 -38
18 -24 3 -44 4 -46 3 -7 -6 25 -51 34 -48 7 2 10 -5 7 -19 -2 -13 3 -36 11
-53 15 -28 14 -30 -5 -37 -15 -6 -20 -14 -16 -27 3 -13 -1 -21 -13 -24 -15 -4
-19 4 -25 38 -3 24 -12 46 -20 49 -8 3 -12 12 -9 20 3 8 -4 24 -15 35 -12 12
-21 25 -21 31 0 5 -7 6 -17 3 -10 -4 -14 -2 -10 4 5 7 -1 9 -15 5 -14 -3 -19
-2 -14 6 4 7 2 12 -4 12 -7 0 -9 8 -5 20 4 12 2 20 -5 20 -6 0 -18 6 -25 14
-12 12 -11 15 6 19 24 6 23 41 -1 43 -8 1 -21 2 -27 3 -19 2 -16 19 5 24 14 4
13 5 -4 6 -20 1 -54 29 -54 44 0 4 7 7 15 7 14 0 14 3 0 29 -11 23 -12 36 -5
57 9 22 8 25 -6 20 -8 -3 -18 -6 -20 -6 -2 0 -4 -7 -4 -15 0 -10 -11 -15 -32
-16 -18 -1 -25 -3 -15 -6 9 -2 17 -9 17 -14 0 -5 7 -9 15 -9 10 0 15 -10 15
-29 0 -36 -25 -48 -42 -21 -7 11 -18 20 -25 20 -18 0 -16 -10 3 -24 13 -10 13
-15 2 -37 -11 -22 -16 -24 -26 -12 -15 15 -42 18 -42 3 0 -5 4 -10 8 -10 4 0
8 -17 8 -37 0 -22 5 -37 11 -36 15 3 25 -25 12 -32 -5 -4 -7 -11 -4 -16 4 -5
2 -9 -4 -9 -16 0 -22 18 -9 23 9 3 2 15 -18 34 l-31 29 -9 -35 c-5 -21 -15
-36 -24 -36 -15 -1 -16 -8 -5 -36 8 -22 -20 -49 -52 -49 -16 0 -27 7 -30 20
-8 32 -22 13 -19 -26 3 -26 0 -34 -10 -30 -17 6 -64 -13 -64 -26 0 -5 9 -4 20
2 17 9 20 8 20 -9 0 -11 -8 -24 -17 -30 -17 -9 -17 -10 0 -16 23 -9 22 -28 -2
-20 -10 3 -23 -1 -30 -9 -10 -12 -9 -18 8 -33 28 -23 26 -33 -4 -33 -14 0 -25
4 -25 9 0 18 -33 21 -46 4 -10 -14 -15 -16 -25 -5 -11 10 -10 12 4 12 24 0 33
28 14 43 -8 7 -17 21 -19 32 -2 11 -10 20 -18 20 -8 0 -15 6 -14 13 1 6 2 22
3 35 1 15 4 18 10 9 4 -7 12 -12 17 -10 5 1 19 -3 32 -10 18 -11 22 -10 22 3
0 8 -7 15 -16 15 -12 0 -15 6 -10 23 4 18 1 23 -17 24 -40 3 -68 13 -62 23 3
5 1 12 -5 15 -8 5 -10 -11 -9 -49 1 -33 -2 -61 -9 -68 -7 -7 -12 -20 -12 -30
0 -21 -31 -39 -62 -35 -21 2 -23 -2 -23 -41 0 -39 -15 -56 -29 -33 -3 4 -17 6
-31 3 -18 -3 -25 0 -25 12 0 9 -3 16 -7 17 -5 0 -20 2 -35 3 -15 1 -35 9 -45
18 -13 12 -23 14 -36 6 -10 -5 -22 -7 -25 -3 -4 4 -2 10 4 12 9 3 8 12 -3 34
-14 27 -33 32 -33 7 0 -6 -8 -17 -17 -25 -10 -8 -12 -12 -5 -8 12 6 15 0 15
-30 0 -43 -2 -45 -53 -45 -45 0 -52 -3 -60 -25 -5 -14 -7 -32 -4 -40 4 -8 1
-15 -5 -15 -7 0 -11 -8 -9 -17 2 -11 -6 -19 -22 -24 -14 -4 -19 -7 -12 -8 6
-1 12 -12 12 -25 0 -13 6 -26 13 -29 19 -7 -6 -41 -34 -45 -13 -2 -30 -9 -38
-15 -10 -9 -18 -6 -33 12 -10 14 -17 29 -15 35 3 6 -8 11 -24 12 -22 1 -29 -3
-29 -18 0 -11 -8 -22 -18 -25 -13 -3 -19 -14 -19 -33 0 -16 4 -27 8 -25 8 5
22 -25 15 -32 -3 -3 -18 2 -35 10 -26 13 -30 13 -36 -1 -3 -8 -3 -17 0 -20 3
-3 5 -2 5 2 0 4 8 2 19 -3 18 -10 27 -61 10 -61 -5 0 -9 -12 -9 -26 0 -27 3
-26 -77 -13 -34 6 -43 -12 -18 -38 8 -8 13 -19 10 -24 -4 -5 -2 -9 3 -9 6 0
12 6 15 13 7 17 64 10 71 -9 5 -14 -28 -29 -44 -19 -5 3 -10 -1 -10 -10 0 -9
-4 -14 -8 -11 -4 2 -8 -4 -8 -15 0 -11 7 -19 18 -19 9 0 20 -4 23 -10 3 -5 -3
-10 -13 -10 -11 0 -22 -8 -25 -17 -2 -10 -8 -26 -12 -35 -5 -13 -2 -18 9 -18
9 0 16 -4 16 -10 0 -5 -7 -10 -16 -10 -10 0 -15 -8 -14 -22 3 -37 1 -46 -16
-62 -23 -23 -7 -39 32 -33 19 3 34 4 34 3 0 -11 -52 -56 -64 -56 -8 0 -18 -4
-21 -10 -3 -5 -1 -10 5 -10 7 0 10 -7 6 -15 -3 -8 -1 -15 4 -15 6 0 10 5 10
10 0 6 7 10 16 10 8 0 13 -4 9 -10 -8 -14 17 -50 35 -50 9 0 22 -6 29 -12 11
-10 13 -10 7 0 -10 18 29 16 44 -3 7 -8 10 -22 6 -30 -3 -9 1 -18 9 -21 8 -4
12 -11 8 -18 -4 -6 -8 -14 -9 -18 -1 -5 -3 -11 -4 -15 -8 -22 -3 -50 10 -64
16 -18 65 -33 92 -30 22 3 33 -18 14 -25 -9 -3 -16 -14 -16 -23 0 -9 -5 -22
-12 -29 -8 -8 -8 -12 -1 -12 6 0 16 7 24 16 12 14 14 14 21 -6 5 -12 3 -30 -3
-42 -8 -15 -7 -24 5 -37 20 -22 21 -106 3 -141 -11 -20 -20 -24 -47 -22 -28 2
-31 0 -20 -13 7 -8 23 -15 36 -15 13 0 25 -8 29 -19 7 -22 -10 -71 -25 -71
-13 0 -13 17 0 25 6 3 10 12 10 20 0 10 -9 12 -35 8 -34 -5 -41 1 -36 30 1 9
-21 9 -37 -2 -10 -6 -10 -10 3 -21 8 -7 15 -23 15 -37 0 -13 4 -22 8 -19 10 6
57 -62 49 -71 -4 -3 -25 -1 -48 6 -48 14 -55 11 -39 -19 9 -17 18 -20 45 -16
22 4 37 1 45 -9 14 -17 4 -39 -13 -28 -17 11 -37 14 -78 14 -42 -1 -79 34 -79
73 0 14 -4 28 -10 31 -5 3 -10 12 -10 18 0 8 3 8 9 -1 7 -11 9 -10 14 3 4 9 3
13 -2 10 -12 -7 -41 34 -41 57 0 15 -6 17 -30 13 -17 -3 -30 -1 -30 5 0 5 -22
10 -48 10 -26 0 -53 5 -59 11 -8 8 -13 8 -17 0 -10 -15 -51 -14 -64 2 -8 10
-1 12 33 12 25 -1 48 -4 51 -8 23 -22 104 8 104 39 0 8 6 14 13 14 16 0 19
-29 5 -47 -15 -19 10 -25 31 -6 13 10 17 21 11 27 -4 6 -9 14 -9 19 -1 4 -1 8
-2 10 -8 26 -4 43 13 57 22 17 18 40 -6 40 -8 0 -16 14 -19 30 -5 21 -12 30
-27 30 -11 0 -20 -4 -20 -10 0 -5 -5 -10 -10 -10 -6 0 -5 8 2 20 11 17 10 22
-2 30 -8 5 -18 6 -22 4 -4 -3 -8 0 -8 6 0 7 7 9 16 6 11 -4 15 -2 11 8 -3 8
-1 17 6 20 7 3 6 5 -3 5 -9 1 -22 -5 -29 -11 -7 -7 -12 -8 -11 -3 5 22 -1 27
-15 15 -12 -10 -16 -9 -21 4 -3 9 -15 16 -25 16 -10 0 -19 6 -19 14 0 7 -9 16
-20 19 -28 7 -36 35 -15 51 10 7 15 18 12 23 -9 15 -75 -17 -83 -40 -5 -15 -8
-16 -22 -5 -13 11 -15 11 -9 -4 3 -10 1 -20 -5 -24 -7 -4 -5 -10 6 -16 11 -6
14 -14 8 -26 -11 -22 -10 -28 11 -76 20 -44 20 -49 8 -41 -5 3 -19 -9 -31 -26
-14 -18 -28 -28 -37 -25 -26 10 -52 -12 -51 -43 1 -15 -2 -33 -5 -38 -6 -9 21
-22 46 -23 4 0 7 18 7 40 0 38 1 39 28 34 23 -5 29 -1 39 26 13 35 36 36 41 2
3 -17 9 -21 25 -17 24 5 72 -28 63 -43 -3 -5 -24 -12 -46 -16 -35 -5 -40 -9
-35 -26 4 -12 2 -20 -6 -20 -9 0 -9 -3 1 -15 6 -8 9 -23 5 -35 -4 -13 -2 -20
7 -20 23 -1 -25 -30 -49 -30 -30 0 -29 -2 8 -39 33 -33 73 -41 83 -16 7 18 26
20 26 2 0 -15 51 -47 74 -47 8 0 27 -12 41 -27 14 -16 31 -28 38 -28 17 -1 36
26 32 47 -3 13 0 16 8 11 7 -4 17 -8 22 -8 6 0 10 -13 9 -28 -1 -15 3 -27 8
-27 5 0 6 -5 3 -10 -4 -6 -21 -9 -38 -6 -33 5 -60 -5 -56 -20 1 -5 -8 -13 -20
-19 -11 -5 -21 -15 -21 -22 0 -7 -4 -13 -10 -13 -5 0 -10 -4 -10 -10 0 -5 7
-10 15 -10 10 0 12 -6 8 -17 -6 -15 -4 -16 9 -5 8 7 22 10 31 6 23 -8 31 15
11 31 -18 14 -18 14 3 15 12 0 25 -5 28 -10 4 -6 16 -8 28 -5 l22 6 -22 -18
c-16 -13 -21 -25 -17 -40 7 -24 -5 -30 -23 -12 -8 8 -13 7 -18 -2 -5 -8 -4
-10 3 -5 7 4 12 1 12 -9 0 -11 5 -15 15 -11 10 4 15 -1 15 -15 0 -11 5 -17 10
-14 6 3 13 -1 16 -9 3 -9 11 -13 17 -9 6 3 7 1 3 -5 -9 -15 -36 -15 -36 0 0 6
-3 9 -6 5 -3 -3 1 -16 10 -29 18 -25 21 -58 6 -58 -5 0 -10 9 -10 21 0 11 -4
17 -10 14 -6 -4 -18 -1 -26 6 -20 16 -31 3 -16 -21 8 -13 8 -20 0 -22 -11 -4
7 -46 26 -60 5 -3 11 -16 13 -28 3 -18 0 -21 -14 -15 -10 4 -27 10 -38 12 -17
5 -16 1 8 -21 32 -32 33 -37 7 -54 -13 -8 -20 -23 -20 -41 0 -40 -28 -44 -58
-9 -13 16 -32 28 -43 28 -21 0 -27 -19 -6 -21 6 -1 1 -4 -13 -8 -18 -5 -24
-14 -23 -28 2 -19 -1 -21 -27 -13 -16 5 -35 12 -42 16 -7 4 -5 -2 5 -14 11
-11 16 -25 13 -31 -4 -5 -4 -28 0 -50 5 -33 11 -41 34 -46 15 -3 36 -16 46
-27 19 -21 19 -21 -15 -15 -18 4 -40 7 -47 7 -8 0 -14 9 -14 20 0 24 -42 37
-74 22 -24 -11 -53 -1 -43 16 4 5 -2 17 -13 27 -25 23 -25 31 1 38 27 7 20 27
-18 50 -27 15 -31 16 -36 2 -4 -8 -3 -14 1 -14 4 1 15 1 25 0 15 -1 13 -6 -12
-27 -17 -14 -37 -23 -43 -21 -8 3 -6 6 5 6 15 1 16 4 6 22 -8 17 -18 20 -46
17 -30 -4 -36 0 -49 24 -8 15 -10 28 -5 28 5 0 12 -6 15 -12 3 -7 4 0 2 17 -3
25 -2 27 8 14 9 -13 14 -14 23 -4 7 7 10 15 7 18 -3 2 2 7 9 10 10 4 13 0 10
-13 -4 -13 1 -19 19 -22 20 -3 24 3 33 47 11 51 4 81 -22 98 -7 4 -13 18 -13
31 0 35 -29 53 -97 61 -62 7 -63 6 -73 -20 -8 -20 -7 -31 2 -43 7 -8 12 -18
11 -21 -5 -13 33 -6 43 8 10 12 13 12 21 -5 12 -24 10 -62 -5 -91 -7 -12 -10
-43 -7 -72 3 -31 1 -51 -5 -51 -6 0 -14 -10 -19 -22 -9 -25 10 -47 42 -48 10
0 20 -7 23 -15 4 -8 10 -12 15 -9 5 3 9 0 9 -6 0 -6 -7 -13 -16 -17 -13 -5
-12 -9 7 -29 20 -21 21 -24 5 -24 -15 0 -17 -5 -12 -26 7 -25 -7 -54 -25 -54
-5 0 -9 8 -9 18 0 10 -3 22 -7 26 -4 4 -8 23 -10 43 -1 20 -7 41 -12 46 -7 7
-7 17 1 30 9 17 8 19 -6 14 -11 -4 -19 -1 -23 10 -6 14 -8 14 -20 -3 -7 -10
-20 -19 -28 -20 -22 -3 -18 24 5 31 17 5 18 10 9 26 -6 12 -8 27 -5 35 3 9 -1
14 -14 14 -15 0 -20 7 -20 28 l0 27 -21 -25 -20 -25 2 50 c1 28 -4 63 -12 78
-11 25 -14 27 -25 12 -11 -14 -13 -14 -27 0 -9 8 -20 15 -26 15 -6 0 -11 7
-11 15 0 8 5 15 10 15 6 0 10 7 10 15 0 9 -9 15 -23 15 -37 0 -70 29 -63 55 5
19 2 24 -16 27 -22 3 -24 7 -27 56 -1 15 -9 26 -20 29 -12 3 -17 11 -14 19 4
12 -2 11 -37 -1 -52 -18 -60 -18 -36 0 10 8 16 21 13 29 -4 9 0 19 7 23 7 5
17 18 20 31 7 21 5 22 -19 16 -21 -5 -27 -3 -32 14 -3 12 -12 22 -20 24 -9 2
-23 23 -32 48 -10 27 -24 46 -35 48 -15 3 -17 -1 -11 -26 6 -28 4 -31 -24 -37
-17 -4 -31 -13 -31 -20 0 -7 -7 -15 -15 -19 -17 -6 -12 -49 9 -76 8 -10 4 -9
-14 3 -13 9 -30 17 -37 17 -18 0 -16 -29 2 -36 22 -9 18 -27 -5 -21 -10 3 -20
1 -22 -4 -5 -13 -53 15 -53 31 0 9 -11 16 -27 18 -18 2 -28 9 -28 20 0 11 -3
13 -11 5 -8 -8 -8 -17 0 -32 7 -12 9 -21 6 -21 -3 0 -1 -10 6 -21 8 -16 13
-18 19 -9 10 16 30 4 30 -17 0 -11 -7 -14 -24 -11 -18 4 -23 1 -21 -11 1 -9 6
-15 10 -13 12 5 35 -55 35 -88 0 -27 -22 -46 -41 -34 -5 3 -9 0 -9 -7 0 -8 -6
-6 -18 4 -10 10 -23 17 -28 17 -5 0 -17 9 -27 20 -20 24 -37 19 -31 -8 3 -9
-3 -26 -13 -37 -10 -11 -17 -28 -15 -37 2 -10 -2 -18 -8 -18 -7 0 -10 -7 -6
-15 4 -11 -1 -15 -19 -15 -18 0 -24 6 -27 28 -2 20 -9 27 -26 28 -12 1 -25 -3
-28 -8 -3 -5 -12 -4 -20 3 -11 9 -14 7 -14 -10 0 -12 6 -30 12 -41 11 -16 9
-22 -7 -34 -13 -9 -22 -11 -26 -4 -4 7 -13 6 -27 -1 -11 -6 -27 -11 -36 -11
-14 0 -16 6 -16 72 0 37 -18 45 -30 14 -5 -14 -15 -26 -22 -26 -9 0 -9 -3 0
-12 7 -7 12 -22 12 -35 0 -17 -6 -23 -22 -23 -13 0 -30 -5 -38 -10 -12 -8 -11
-10 7 -10 23 0 40 -17 28 -28 -3 -3 -10 0 -14 7 -5 7 -15 11 -22 9 -17 -6 -59
35 -61 59 -3 39 3 63 15 63 14 0 47 31 47 43 0 4 -11 7 -24 7 -36 0 -57 48
-49 108 3 26 13 52 20 57 16 12 12 107 -5 128 -5 7 -10 41 -11 76 -2 74 -5 81
-34 81 -16 0 -19 3 -8 9 7 5 10 14 6 20 -4 7 5 21 20 33 17 13 25 27 22 39 -4
15 0 19 20 19 25 0 25 1 9 19 -20 22 -14 41 11 41 9 0 13 3 10 6 -3 4 -1 16 5
27 6 11 12 40 13 64 2 25 11 53 21 64 11 12 13 19 5 19 -13 0 -91 76 -91 89 0
4 15 7 33 8 17 0 38 1 45 2 23 2 4 18 -30 26 -29 6 -31 8 -13 15 11 5 14 9 8
9 -21 1 -15 21 6 21 20 0 45 23 34 33 -3 4 0 13 7 22 8 10 9 15 1 15 -6 0 -11
7 -11 16 0 9 7 14 18 12 29 -5 100 23 105 42 7 25 -11 50 -30 43 -13 -5 -15
-1 -11 21 3 14 1 29 -5 33 -5 3 -7 1 -3 -5 3 -6 1 -14 -5 -17 -6 -4 -8 -18 -4
-32 11 -44 -28 -23 -42 22 l-12 40 2 -34 c2 -30 -1 -34 -25 -38 -32 -4 -35 3
-10 30 16 19 16 20 -5 8 -13 -6 -23 -16 -23 -21 0 -19 -29 -10 -35 10 -3 11
-10 20 -15 20 -6 0 -13 15 -19 45 -1 3 -10 20 -21 39 -17 32 -18 35 -2 39 13
3 9 8 -15 18 -18 7 -32 20 -31 29 3 34 -3 50 -16 50 -8 0 -17 -7 -20 -16 -4
-9 -2 -13 5 -8 7 4 10 1 7 -7 -3 -8 -14 -15 -26 -17 -21 -3 -30 -26 -14 -35 4
-2 1 -2 -5 -1 -7 2 -13 -5 -13 -16 0 -26 -20 -26 -27 0 -3 11 -10 20 -15 20
-5 0 -6 -5 -2 -11 9 -15 -16 -60 -29 -52 -6 4 -8 0 -5 -9 7 -17 -25 -49 -39
-39 -4 3 -8 18 -8 33 1 15 -3 24 -7 22 -4 -3 -8 0 -8 5 0 6 -4 11 -10 11 -5 0
-10 -9 -10 -20 0 -24 -7 -25 -53 -5 -20 8 -48 15 -63 15 -16 0 -36 11 -51 26
-22 24 -23 28 -8 44 15 16 14 18 -16 24 -20 4 -33 13 -36 26 -4 13 -11 19 -20
16 -10 -4 -13 0 -11 17 2 14 10 22 23 22 14 0 22 9 27 30 8 38 6 40 -22 15
-18 -16 -31 -19 -54 -14 -39 8 -66 25 -66 41 0 7 -6 13 -14 13 -9 0 -12 7 -9
20 3 12 0 20 -6 20 -7 0 -10 4 -6 9 3 5 2 12 -3 15 -13 8 -42 -32 -36 -49 4
-11 0 -15 -16 -15 -18 0 -21 -4 -16 -22 4 -13 10 -38 13 -57 6 -32 5 -33 -16
-20 -11 8 -21 19 -21 26 0 7 -4 13 -10 13 -17 0 -11 18 8 22 12 3 7 9 -20 22
-21 10 -40 27 -43 37 -4 11 -11 16 -17 13 -6 -4 -14 0 -19 7 -7 11 -9 9 -9 -6
1 -11 7 -29 15 -39 21 -27 19 -39 -5 -33 -11 3 -18 1 -15 -3 3 -5 -4 -11 -15
-15 -28 -9 -23 -36 9 -47 8 -2 15 -12 17 -22 1 -10 -2 -16 -10 -13 -9 3 -12
-8 -12 -37 1 -24 -5 -45 -13 -52 -14 -11 -7 -39 8 -30 4 3 7 -8 6 -24 -1 -16
4 -31 12 -34 7 -3 13 -14 13 -25 0 -13 5 -18 14 -15 9 3 15 -7 19 -33 10 -55
9 -63 -7 -63 -24 0 -27 -15 -15 -70 9 -41 8 -54 -2 -60 -10 -7 -9 -17 4 -52 9
-24 17 -53 17 -63 0 -11 14 -33 30 -49 17 -16 30 -35 30 -42 0 -7 3 -14 8 -16
4 -1 20 -22 35 -44 19 -29 26 -49 22 -65 -4 -17 5 -40 30 -80 32 -52 38 -57
81 -63 25 -3 51 -3 57 1 6 4 8 0 4 -9 -3 -10 1 -18 11 -21 9 -3 24 -8 32 -11
12 -5 16 0 15 21 0 20 4 27 15 25 8 -2 23 -4 32 -5 12 -1 14 -5 8 -11 -16 -16
-12 -41 10 -61 17 -15 17 -19 4 -32 -17 -18 -10 -33 16 -33 17 0 18 -5 13 -51
-6 -47 -5 -51 13 -45 10 3 26 1 34 -4 8 -5 10 -10 4 -10 -20 0 -74 -57 -74
-77 0 -15 4 -13 24 10 25 29 56 33 64 8 3 -10 0 -12 -12 -8 -14 6 -16 3 -11
-14 4 -11 2 -26 -4 -33 -9 -11 -5 -56 6 -56 3 0 13 10 23 23 10 12 22 18 26
14 5 -4 2 -12 -5 -16 -9 -6 -9 -10 -2 -12 18 -7 -2 -59 -29 -72 -29 -15 -40
-47 -16 -47 12 0 15 -6 10 -24 -3 -13 -1 -27 5 -30 6 -4 11 -2 11 3 0 6 5 11
10 11 6 0 10 -13 10 -30 0 -21 -4 -28 -14 -24 -7 3 -16 -1 -19 -9 -4 -10 3
-17 22 -20 24 -5 27 -10 27 -46 -1 -22 -8 -49 -17 -59 -15 -17 -15 -20 0 -30
13 -9 11 -11 -15 -11 -25 -1 -34 -8 -53 -41 l-23 -41 24 -19 23 -20 -32 6
c-20 4 -33 2 -33 -4 0 -6 -18 -13 -40 -17 -40 -7 -50 -18 -28 -31 7 -5 4 -10
-11 -16 -15 -5 -21 -14 -17 -25 3 -10 8 -34 11 -54 6 -31 10 -35 31 -31 22 4
24 1 24 -31 0 -22 -6 -37 -16 -41 -8 -3 -12 -11 -8 -17 4 -7 3 -9 -4 -5 -5 3
-12 1 -14 -4 -5 -15 -77 16 -85 36 -3 8 -12 13 -19 10 -15 -6 -20 25 -6 38 4
4 7 21 8 38 0 26 -3 29 -23 25 -14 -3 -23 1 -23 8 0 7 -9 15 -21 18 -12 3 -18
10 -15 16 3 5 -1 16 -9 24 -8 9 -15 23 -15 31 0 13 -4 12 -20 -4 -21 -21 -40
-26 -40 -11 0 5 7 17 16 26 13 13 14 18 3 31 -19 24 -54 14 -54 -16 0 -21 -4
-25 -30 -24 -23 1 -33 -4 -42 -22 -7 -14 -7 -26 -1 -32 13 -13 -7 -25 -43 -27
-21 -1 -29 4 -34 22 -8 32 -46 32 -42 1 1 -15 -3 -22 -12 -20 -8 2 -11 -3 -8
-11 4 -11 0 -13 -14 -10 -14 4 -19 0 -19 -16 0 -22 14 -28 25 -11 4 6 11 8 16
4 5 -3 7 -10 4 -15 -4 -5 0 -9 8 -9 16 0 31 -53 17 -58 -5 -2 -6 -10 -3 -18 3
-8 0 -14 -6 -14 -6 0 -11 -11 -11 -24 0 -17 -5 -23 -17 -22 -11 0 -19 -7 -21
-19 -5 -30 -63 -64 -88 -51 -10 6 -23 17 -27 24 -4 6 -13 12 -18 12 -6 0 -35
15 -65 33 -35 21 -54 39 -54 52 0 15 3 16 12 7 7 -7 20 -12 30 -12 9 0 22 -9
28 -20 6 -11 15 -18 20 -15 5 3 14 -3 20 -14 12 -24 40 -17 40 9 0 11 5 22 10
25 6 3 10 17 10 30 0 13 4 25 8 27 14 6 54 78 43 78 -6 0 -11 -4 -11 -9 0 -21
-32 -19 -53 3 -60 63 -75 84 -86 119 -9 25 -20 39 -37 43 -13 3 -24 8 -24 11
0 12 31 34 40 28 26 -16 6 16 -25 39 -19 15 -35 34 -35 42 0 17 5 17 30 4 28
-15 32 4 7 30 -15 17 -17 22 -5 17 19 -7 46 19 32 33 -5 4 -29 -2 -56 -15 -42
-20 -49 -21 -67 -8 -13 8 -21 25 -21 42 0 24 5 29 30 33 17 3 33 2 35 -2 5 -8
85 1 85 10 0 12 -28 20 -45 14 -8 -4 -17 1 -21 9 -3 8 -19 21 -35 27 -21 9
-27 16 -19 25 5 6 8 14 5 17 -3 3 1 11 10 18 23 19 18 31 -10 24 -42 -10 -28
11 17 27 l43 16 -53 13 c-59 14 -75 33 -46 55 18 13 17 14 -13 15 -23 0 -33 5
-33 16 0 9 -5 12 -12 8 -8 -5 -9 -2 -5 11 4 9 2 24 -4 31 -9 11 -6 14 14 14
14 0 29 5 33 12 8 13 -24 40 -38 31 -6 -3 -5 4 1 16 10 18 9 22 -6 28 -10 3
-20 7 -23 9 -3 1 -12 -1 -20 -6 -11 -7 -11 -11 -1 -24 16 -19 6 -36 -20 -36
-10 0 -19 -7 -19 -15 0 -9 9 -15 21 -15 17 0 19 -3 10 -14 -6 -7 -9 -20 -6
-28 4 -9 -1 -18 -10 -22 -12 -4 -15 -13 -11 -31 6 -25 -9 -36 -17 -12 -2 6 -3
5 -2 -4 1 -9 -19 -40 -46 -68 -44 -47 -55 -67 -50 -95 1 -5 -4 -13 -11 -18
-10 -8 -10 -11 0 -15 6 -2 12 -14 13 -26 0 -12 3 -16 6 -9 4 10 8 10 19 1 11
-9 18 -9 29 1 12 10 15 9 15 -7 0 -29 11 -35 26 -15 7 9 15 14 18 11 3 -3 -14
-26 -39 -50 -56 -55 -62 -60 -107 -84 -21 -11 -38 -25 -38 -31 0 -7 -13 -24
-30 -37 -16 -14 -30 -31 -30 -38 0 -7 8 -5 20 6 15 14 23 16 32 7 8 -8 15 -7
25 4 19 18 37 18 29 -1 -4 -11 2 -15 24 -15 36 0 43 -30 8 -31 -25 -1 -70 -26
-136 -74 -47 -35 -50 -41 -21 -48 16 -4 20 -11 16 -26 -4 -16 0 -21 16 -21 22
-1 22 -1 2 -15 -11 -8 -25 -19 -32 -25 -22 -18 -39 -11 -48 23 -9 30 -14 32
-57 35 -27 2 -48 5 -48 8 0 13 22 44 28 40 4 -2 13 7 19 21 11 23 11 25 -10
18 -44 -14 -62 -11 -62 10 0 14 -7 20 -23 19 -25 -1 -26 0 -12 27 12 21 50 26
50 7 0 -6 3 -8 6 -5 13 13 -17 35 -56 41 -27 4 -40 11 -40 22 0 11 6 13 20 9
11 -4 20 -2 20 4 0 6 -16 11 -35 11 -41 0 -43 5 -12 31 21 18 21 19 2 17 -14
-2 -21 4 -23 20 -5 31 -22 28 -22 -4 0 -18 -4 -25 -14 -21 -22 9 -52 -18 -40
-34 17 -24 18 -79 1 -79 -9 0 -29 -11 -45 -25 -16 -13 -32 -22 -36 -18 -3 3
-6 1 -6 -5 0 -7 -7 -12 -15 -12 -23 0 -18 -16 11 -28 20 -10 28 -9 40 3 20 19
34 19 34 -1 0 -8 3 -13 8 -11 7 5 8 -20 4 -106 -2 -35 -3 -37 -29 -31 -16 4
-32 10 -38 14 -5 4 -21 3 -35 -3 -14 -5 -29 -11 -35 -12 -32 -9 -65 -26 -65
-35 0 -12 10 -13 29 -1 9 6 22 6 33 0 12 -7 18 -6 18 1 0 6 5 8 10 5 15 -10
12 -25 -7 -32 -10 -4 -21 -11 -25 -17 -5 -7 -21 -4 -47 12 -42 23 -71 28 -71
13 0 -5 8 -12 18 -15 9 -3 26 -24 36 -46 11 -22 24 -40 29 -40 6 0 19 -7 29
-17 17 -15 18 -15 18 4 0 11 7 20 15 20 22 0 18 -34 -5 -40 -12 -3 -20 -14
-20 -27 0 -11 4 -19 9 -16 5 3 11 -8 13 -25 l5 -30 -47 6 c-44 6 -47 4 -46
-16 1 -19 -6 -24 -39 -31 -63 -13 -69 -16 -56 -31 7 -10 5 -18 -9 -30 -11 -9
-20 -26 -20 -37 0 -19 9 -23 53 -23 9 0 17 -7 18 -16 1 -16 5 -9 24 47 4 12
14 22 21 22 18 0 18 -10 -1 -37 -14 -20 -13 -22 15 -32 40 -13 38 -29 -4 -36
-19 -4 -43 -15 -53 -25 -11 -10 -29 -20 -40 -24 -11 -4 -27 -14 -36 -24 -21
-23 -26 -73 -8 -80 9 -3 11 1 7 16 -4 11 -2 23 4 27 5 3 10 0 10 -7 0 -8 5 -6
11 5 6 9 15 15 20 11 5 -3 16 -1 23 5 9 8 21 5 44 -12 l31 -23 -29 -17 c-15
-9 -34 -17 -42 -17 -27 0 -68 -25 -68 -42 0 -10 -7 -18 -15 -18 -16 0 -35 -38
-35 -71 0 -11 7 -19 16 -19 9 0 14 -6 11 -12 -2 -7 -11 -12 -19 -10 -15 2 -48
-51 -48 -77 0 -15 27 -14 33 2 3 8 8 9 16 1 16 -15 -6 -77 -25 -70 -19 7 -18
-28 0 -43 8 -7 26 -15 40 -19 32 -9 34 -26 4 -30 -12 -2 -28 -12 -35 -22 -7
-10 -28 -20 -46 -22 l-32 -3 38 -17 c39 -18 50 -51 26 -75 -9 -9 -8 -16 5 -28
22 -23 20 -32 -9 -37 -22 -5 -25 -2 -25 23 0 15 -7 34 -15 43 -8 8 -15 29 -15
46 0 17 -4 29 -9 26 -5 -3 -14 1 -21 8 -6 8 -20 13 -31 11 -31 -6 -51 6 -46
26 6 21 -17 44 -33 34 -5 -3 -10 -1 -10 4 0 24 -16 9 -18 -16 -1 -15 -6 -31
-11 -36 -5 -5 -7 -15 -5 -22 7 -16 -12 -29 -21 -15 -11 18 -15 170 -4 170 5 0
7 11 3 24 -4 17 0 27 13 34 15 9 16 13 4 24 -10 9 -12 10 -7 1 4 -7 3 -13 -2
-13 -16 0 -24 49 -28 165 -4 128 -5 131 -13 85 -3 -19 -4 -57 0 -85 10 -81 1
-280 -14 -302 -5 -8 -4 -13 2 -13 6 0 11 -18 11 -40 0 -28 -4 -40 -14 -40 -22
0 -31 21 -15 32 11 8 10 9 -3 5 -9 -3 -29 4 -45 15 -15 12 -30 23 -32 25 -2 1
3 17 12 35 16 32 15 33 -5 36 -12 2 -50 -4 -85 -13 -35 -10 -66 -15 -70 -12
-3 3 -3 17 1 31 5 20 11 24 31 20 19 -3 25 0 25 15 0 22 23 44 35 33 4 -4 5 2
3 13 -3 17 -10 20 -57 17 -30 -2 -62 -7 -72 -13 -31 -16 -23 16 11 44 17 14
30 31 30 37 0 6 5 8 10 5 6 -3 10 2 10 13 0 13 -12 23 -42 32 -25 8 -36 15
-26 17 48 11 19 73 -31 65 -25 -3 -33 1 -50 29 -12 19 -21 49 -21 67 0 20 -4
31 -10 27 -5 -3 -10 3 -10 14 0 34 -19 24 -26 -14 -3 -19 -12 -35 -19 -35 -23
0 -45 30 -46 63 -2 55 -4 60 -18 65 -10 3 -13 -2 -9 -23 5 -26 -14 -79 -32
-90 -5 -3 -7 -12 -3 -20 4 -11 -3 -15 -25 -15 -41 0 -63 -23 -56 -60 6 -27 4
-29 -30 -35 -59 -11 -45 -43 23 -54 l34 -6 -26 -25 c-33 -31 -34 -48 -2 -56
22 -6 31 -26 23 -51 -5 -11 -42 -11 -56 0 -9 7 -16 7 -24 -1 -7 -7 -26 -12
-42 -12 -40 0 -106 -18 -106 -29 0 -12 26 -21 56 -21 15 0 24 -6 24 -15 0 -8
7 -15 15 -15 8 0 15 -4 15 -10 0 -5 7 -10 15 -10 21 0 19 -17 -3 -24 -16 -6
-32 -4 -94 9 -40 9 -43 -13 -4 -32 28 -13 33 -20 26 -33 -7 -13 -2 -22 22 -40
35 -25 22 -45 -19 -29 -27 10 -113 12 -137 3 -26 -10 -18 -23 17 -26 31 -3 32
-5 32 -46 0 -26 5 -46 14 -52 12 -7 12 -11 2 -24 -10 -12 -9 -17 8 -26 12 -6
21 -14 21 -18 0 -4 -31 -20 -67 -37 -47 -21 -61 -31 -48 -34 11 -2 23 -8 26
-14 5 -6 18 -2 35 10 16 11 35 18 41 16 7 -3 20 3 29 11 18 18 36 13 28 -8 -3
-8 -1 -17 5 -21 6 -3 11 -17 11 -31 0 -21 -4 -24 -41 -24 -40 0 -40 0 -34 -30
4 -19 3 -30 -4 -30 -6 0 -11 -9 -11 -19 0 -11 -4 -23 -10 -26 -6 -3 -10 -11
-10 -16 0 -6 5 -7 10 -4 14 8 13 -18 -1 -32 -8 -8 -5 -17 10 -32 26 -26 27
-56 1 -83 -11 -12 -16 -24 -12 -27 5 -3 12 -18 15 -33 5 -17 15 -28 30 -31
l22 -4 -22 -2 c-30 -1 -29 -17 3 -37 22 -15 27 -15 35 -3 8 12 10 12 19 -1 5
-9 5 -19 0 -24 -4 -4 -6 -15 -3 -22 6 -15 -13 -44 -28 -44 -5 0 -4 8 2 19 13
20 6 51 -12 51 -8 0 -8 -4 1 -15 9 -10 9 -19 2 -27 -9 -11 -18 -74 -12 -88 6
-17 5 -90 -2 -90 -4 0 -8 6 -8 14 0 8 -7 17 -16 20 -21 8 -24 8 -24 -4 0 -5 6
-10 14 -10 8 0 16 -6 19 -12 7 -20 -11 -58 -26 -58 -8 0 -20 -7 -27 -15 -15
-18 -30 -20 -30 -3 0 6 -10 22 -21 35 -18 19 -20 25 -9 38 7 9 21 13 31 10 14
-5 19 -1 19 13 0 25 -50 38 -50 13 -1 -20 -38 -66 -47 -57 -3 3 -2 6 3 6 4 0
-2 7 -14 16 -28 19 -28 30 1 39 l22 8 -23 4 c-16 3 -30 -3 -43 -18 -21 -25
-22 -28 -10 -48 6 -9 11 -10 15 -2 10 16 26 13 26 -4 0 -9 10 -19 22 -24 12
-4 17 -11 11 -14 -10 -6 -3 -75 12 -111 6 -14 5 -17 -3 -12 -8 5 -13 -1 -13
-16 -6 -84 -4 -93 24 -122 15 -17 25 -23 22 -15 -3 9 1 22 10 29 8 7 15 9 15
5 0 -4 7 -2 15 5 8 7 15 21 15 32 0 10 6 18 13 16 6 -2 12 2 12 7 0 6 -8 9
-17 8 -26 -4 -22 12 7 25 21 10 25 9 25 -3 0 -8 6 -15 14 -15 7 0 19 -6 25
-13 8 -11 5 -16 -15 -26 -75 -34 -128 -107 -72 -99 33 5 33 -19 0 -27 -18 -4
-32 -14 -35 -26 -4 -15 -2 -19 9 -15 8 3 14 1 14 -4 0 -6 -10 -10 -22 -10 -17
0 -19 -3 -10 -12 18 -18 14 -36 -10 -44 -13 -5 -26 -7 -30 -6 -5 1 -8 -5 -8
-14 0 -10 -5 -14 -15 -10 -12 4 -13 2 -5 -13 7 -15 6 -20 -6 -25 -26 -10 -32
-7 -27 14 3 11 1 20 -4 20 -6 0 -8 11 -6 24 4 17 0 25 -16 29 -13 3 -21 13
-21 26 0 12 -5 21 -11 21 -5 0 -7 -4 -4 -10 3 -5 0 -20 -6 -32 -7 -13 -15 -36
-19 -53 -3 -16 -9 -28 -12 -25 -7 6 -48 -29 -48 -41 0 -4 10 -9 22 -11 13 -2
24 -11 26 -21 3 -15 -1 -18 -16 -13 -13 4 -22 1 -26 -9 -3 -8 -17 -15 -33 -15
-27 1 -27 1 -9 15 11 8 14 15 7 15 -13 0 -30 13 -67 49 -19 19 -31 23 -58 18
-41 -7 -56 7 -56 50 0 18 -5 33 -11 33 -8 0 -7 5 1 15 11 13 9 19 -8 36 -12
11 -22 26 -22 33 0 8 -11 21 -25 30 -28 18 -36 43 -9 28 15 -8 54 -5 54 4 0 9
-24 54 -29 54 -3 0 -16 8 -29 18 -19 15 -22 22 -13 44 9 23 6 29 -30 58 -37
29 -39 33 -25 49 9 10 16 24 15 32 0 8 -5 3 -11 -11 -9 -21 -12 -22 -15 -7 -3
10 0 24 6 31 8 10 7 17 -4 26 -8 7 -22 29 -31 49 -32 74 -46 98 -57 98 -7 0
-37 5 -68 12 -64 14 -92 7 -84 -19 4 -14 -2 -21 -29 -30 -31 -10 -52 -33 -48
-52 1 -5 -4 -8 -11 -8 -8 0 -14 -15 -16 -41 -1 -26 2 -38 9 -34 14 8 13 -38
-1 -52 -6 -6 -11 -30 -11 -52 0 -22 -3 -43 -8 -46 -5 -3 -7 -18 -4 -33 8 -37
-22 -66 -38 -38 -8 14 -17 16 -46 11 -21 -4 -40 -12 -44 -18 -12 -19 -9 -37 6
-37 20 0 31 -19 18 -32 -6 -6 -12 -6 -16 1 -4 5 -13 8 -21 4 -8 -3 -15 0 -15
6 0 6 -7 8 -15 4 -9 -3 -22 2 -29 12 -7 10 -18 15 -25 11 -9 -6 -9 -11 1 -23
6 -8 13 -21 14 -29 3 -17 -22 -38 -35 -30 -10 7 -26 -12 -18 -20 12 -12 43
-10 59 3 15 13 16 11 15 -21 -1 -20 -5 -36 -9 -36 -4 0 -7 -6 -6 -12 2 -7 -7
-14 -19 -16 -16 -2 -23 2 -23 13 0 12 -5 15 -21 10 -15 -5 -19 -4 -14 4 5 8
-2 10 -22 5 -34 -8 -42 -15 -25 -21 6 -3 12 -14 12 -25 0 -17 -2 -18 -15 -8
-13 11 -15 9 -13 -10 4 -28 -26 -50 -44 -32 -9 9 -9 15 0 24 8 8 8 17 1 30 -6
11 -8 22 -5 26 3 3 6 0 6 -6 0 -7 7 -12 15 -12 8 0 15 6 15 13 0 7 9 19 20 27
11 8 20 23 20 33 0 15 -5 17 -35 11 -27 -5 -36 -3 -41 10 -5 14 -7 14 -21 0
-12 -12 -18 -12 -23 -3 -4 6 -13 8 -20 4 -6 -4 -17 1 -25 11 -11 16 -10 20 4
31 23 17 41 16 41 -3 0 -14 3 -14 15 -4 12 10 13 16 3 28 -11 13 -10 14 11 7
18 -6 22 -4 15 6 -5 8 -9 20 -10 27 -8 49 -34 57 -34 11 0 -24 -3 -30 -16 -25
-9 3 -30 6 -47 6 -24 0 -28 3 -17 10 8 5 10 10 4 10 -7 0 -14 9 -17 21 -5 18
-8 19 -26 7 -15 -9 -17 -15 -9 -25 7 -9 7 -13 -1 -13 -13 0 14 -59 33 -73 10
-8 -55 -2 -100 9 -12 3 -28 -1 -35 -9 -7 -8 -21 -12 -30 -10 -13 4 -16 -1 -12
-21 5 -23 2 -26 -25 -26 -17 0 -32 -5 -34 -11 -2 -5 -22 -13 -45 -16 -23 -3
-41 -10 -40 -16 2 -13 -59 -10 -85 4 -15 8 -18 5 -19 -13 -1 -13 -1 -26 0 -30
1 -11 -27 -10 -71 3 -21 5 -38 16 -38 24 0 20 -76 38 -127 31 -44 -6 -62 11
-24 21 17 4 18 8 8 24 -6 10 -19 19 -27 19 -11 1 -10 4 4 15 11 8 14 15 7 15
-7 0 -9 5 -6 10 4 6 3 10 -2 9 -4 -1 -10 -1 -13 0 -3 1 -32 3 -64 6 -59 4
-102 -8 -91 -25 3 -4 -4 -6 -16 -3 -11 3 -18 11 -15 19 6 16 -27 28 -53 19
-11 -3 -24 1 -32 12 -12 15 -12 16 1 8 13 -8 13 -7 1 8 -8 10 -40 25 -72 34
-47 13 -59 21 -64 41 -3 14 -18 34 -33 46 -27 22 -30 23 -60 25 -11 0 -24 13
-31 27 -7 16 -17 24 -26 20 -8 -3 -28 8 -46 25 -31 29 -59 38 -59 19 0 -5 -4
-10 -10 -10 -5 0 -10 5 -10 11 0 14 -26 40 -33 32 -3 -3 -18 4 -33 16 -15 12
-21 21 -13 21 10 1 9 3 -3 10 -11 7 -26 7 -43 0 -32 -12 -45 -13 -26 -1 8 5
15 26 16 46 1 35 0 36 -32 33 -37 -3 -48 5 -39 28 5 12 10 13 19 6 8 -7 18 -7
27 -2 12 8 12 10 -3 10 -33 0 -50 27 -44 71 5 39 4 41 -28 55 -37 15 -55 51
-34 65 12 7 11 9 -1 9 -11 0 -12 2 -2 8 13 9 13 122 0 122 -5 0 -8 18 -8 41 0
24 4 38 10 34 5 -3 10 1 10 9 0 14 -18 21 -43 17 -11 -2 -8 6 9 23 8 9 28 16
44 16 16 0 35 6 41 13 10 10 17 8 36 -11 22 -22 26 -23 41 -9 11 10 23 13 31
8 9 -6 10 -11 2 -15 -6 -4 -11 -14 -11 -21 0 -12 5 -12 25 -3 14 6 25 17 25
25 0 7 7 13 15 13 8 0 15 -6 15 -13 0 -8 7 -14 15 -14 17 0 17 3 6 32 -20 48
40 75 82 37 11 -9 17 -12 14 -6 -8 14 17 26 37 18 8 -3 17 3 20 14 5 15 18 21
57 24 59 6 69 14 72 55 l2 31 28 -34 c16 -19 34 -34 40 -33 8 0 8 2 -1 6 -6 2
-10 9 -6 14 7 12 44 12 44 -1 0 -24 46 -35 186 -45 51 -3 52 -3 59 28 4 18 7
38 6 45 -1 6 3 12 8 12 6 0 8 6 5 14 -3 8 -12 12 -19 10 -20 -8 -26 11 -15 42
13 34 -5 56 -44 57 -32 0 -56 30 -56 70 0 25 2 28 15 17 10 -8 19 -9 28 -2 6
5 22 8 35 6 12 -2 22 1 22 6 0 6 11 10 24 10 14 0 28 5 31 10 12 19 38 10 75
-29 24 -24 50 -41 73 -45 20 -4 43 -13 51 -21 17 -17 52 -20 61 -5 5 8 11 8
20 0 17 -14 24 5 20 63 -2 40 0 46 20 51 12 3 37 1 56 -4 19 -6 35 -10 36 -10
2 0 3 9 3 20 0 11 -4 20 -10 20 -5 0 -10 7 -10 15 0 17 11 20 26 6 14 -13 74
-1 74 15 0 8 -4 14 -8 14 -4 0 -8 12 -9 28 0 15 -4 43 -7 62 -6 26 -5 31 3 20
9 -13 11 -13 11 3 0 10 -7 20 -15 23 -8 4 -15 14 -15 24 0 9 -9 27 -20 40 -25
29 -25 40 -1 40 11 0 23 5 27 11 4 8 9 7 16 -2 6 -10 7 -7 3 10 -10 34 13 44
44 20 l25 -20 12 28 c7 15 13 25 13 20 1 -4 14 -1 31 8 17 9 30 13 30 9 0 -4
7 -1 15 6 12 10 19 7 39 -17 13 -15 21 -32 18 -38 -14 -20 -8 -60 8 -57 8 2
12 0 8 -4 -4 -4 -2 -14 5 -22 8 -10 8 -13 1 -9 -7 4 -14 0 -18 -8 -3 -9 3 -19
15 -26 11 -6 18 -13 15 -17 -4 -3 8 -11 26 -17 25 -8 33 -16 32 -33 0 -12 5
-22 12 -22 19 0 55 -42 50 -57 -3 -7 2 -13 10 -13 8 0 13 -4 10 -9 -3 -5 1
-12 10 -15 8 -3 13 -10 9 -15 -3 -6 7 -17 22 -25 15 -8 22 -15 16 -16 -20 0
-16 -14 12 -44 14 -15 25 -31 25 -35 0 -5 17 -5 38 1 44 11 108 -6 82 -22 -8
-6 -13 -10 -10 -11 3 0 13 -2 23 -4 9 -2 15 1 12 5 -3 5 -1 11 5 15 6 4 8 10
6 14 -3 4 -1 13 5 21 7 12 9 11 9 -6 0 -17 5 -20 25 -16 18 3 25 0 25 -12 0
-12 5 -14 25 -6 21 8 25 7 25 -8 0 -10 3 -13 8 -6 4 6 24 14 44 18 46 8 48 12
41 63 -5 35 -10 44 -34 52 -22 7 -29 16 -29 36 0 22 3 25 25 19 24 -6 31 4 27
37 -1 3 10 4 23 1 26 -5 30 4 19 46 -4 13 -13 21 -23 20 -10 -2 -15 3 -15 15
1 9 -11 25 -27 34 -16 10 -29 23 -29 29 0 7 -5 14 -12 16 -17 6 -2 38 18 38 9
0 23 8 31 18 10 12 16 14 19 5 8 -18 24 -16 24 2 0 16 35 55 49 55 5 0 17 -8
26 -17 16 -16 18 -16 27 0 8 15 11 15 24 3 8 -8 14 -21 14 -29 0 -10 8 -13 27
-9 18 3 30 -1 39 -13 8 -10 17 -16 20 -12 4 4 13 2 21 -5 10 -8 24 -8 54 2 29
10 46 11 57 3 10 -6 35 -7 62 -3 25 4 41 8 37 9 -4 0 2 11 13 23 11 12 19 31
18 43 -2 15 3 20 22 20 15 0 34 11 48 27 13 16 30 28 38 28 8 0 14 4 14 9 0 5
14 14 30 20 20 6 30 17 30 30 0 10 5 21 11 23 5 2 11 18 11 36 1 17 5 32 11
32 5 0 7 14 3 33 -11 61 -13 106 -5 101 5 -3 6 2 3 10 -5 12 4 17 35 22 27 4
41 12 41 21 0 9 -6 13 -15 9 -9 -3 -15 0 -15 9 0 17 16 20 25 5 19 -31 86 7
128 72 24 38 22 50 -17 92 -23 26 -32 44 -29 57 4 15 -5 31 -32 56 -32 30 -36
39 -27 54 20 32 11 96 -12 82 -6 -4 -6 0 2 9 11 13 8 20 -18 41 -16 14 -39 28
-50 32 -13 4 -20 15 -20 31 0 13 -4 24 -9 24 -5 0 -7 12 -5 28 5 33 -14 59
-46 64 -36 5 -33 34 3 30 21 -2 27 1 27 17 0 11 15 37 33 57 29 34 32 43 30
93 l-3 55 29 -28 c26 -25 30 -26 39 -11 12 22 32 11 25 -13 -2 -10 3 -24 12
-32 9 -7 15 -9 14 -4 -3 20 2 24 19 15 13 -7 29 -4 57 9 30 14 35 19 19 19
-25 1 -35 20 -27 52 8 29 -22 53 -48 39 -14 -8 -20 -4 -33 22 -9 17 -16 49
-16 70 0 24 -4 37 -10 33 -6 -3 -13 1 -16 9 -4 10 -16 14 -32 12 -15 -2 -21
-1 -14 1 17 6 15 23 -3 23 -8 0 -15 7 -15 15 0 8 -7 15 -16 15 -9 0 -18 9 -21
20 -6 24 -23 16 -23 -11 0 -10 -4 -19 -10 -19 -5 0 -10 -7 -10 -15 0 -8 -5
-15 -12 -15 -6 0 -9 3 -6 6 10 9 -7 59 -20 60 -25 3 -25 4 -7 17 24 18 11 37
-23 36 -17 -1 -21 -3 -9 -6 28 -7 9 -23 -29 -23 -35 0 -45 -15 -23 -37 7 -7 3
-9 -15 -6 -14 3 -26 9 -26 13 0 4 -9 10 -19 13 -17 4 -18 2 -10 -20 14 -36 2
-46 -46 -40 -39 6 -42 4 -38 -13 4 -14 -1 -19 -22 -22 -24 -3 -25 -5 -12 -22
9 -12 26 -19 46 -19 37 0 41 -19 7 -35 -19 -8 -24 -18 -24 -46 0 -42 18 -60
50 -50 20 6 21 5 10 -8 -7 -9 -10 -27 -6 -47 5 -21 3 -31 -6 -31 -7 0 -10 7
-7 15 4 8 2 17 -2 20 -5 2 -11 -9 -15 -25 -8 -43 -8 -45 14 -45 33 0 27 -20
-8 -23 -30 -3 -32 -6 -27 -33 3 -16 14 -45 25 -64 20 -35 20 -35 0 -35 -11 0
-20 5 -20 11 0 5 -5 7 -11 4 -6 -4 -10 -1 -8 6 3 29 -2 37 -31 41 -18 3 -35
-1 -41 -9 -6 -7 -8 -13 -3 -13 5 0 1 -7 -10 -15 -17 -13 -16 -16 19 -52 34
-35 35 -38 16 -41 -28 -4 -27 -20 3 -32 38 -14 41 -30 7 -30 -35 0 -41 -17
-10 -28 21 -8 20 -9 -7 -27 -16 -11 -37 -18 -48 -16 -15 2 -17 -2 -12 -22 4
-17 0 -29 -11 -38 -9 -8 -18 -13 -20 -11 -15 10 -21 -2 -12 -25 5 -14 7 -39 4
-55 -6 -25 -4 -28 19 -28 14 0 26 -4 26 -10 0 -5 -4 -10 -10 -10 -5 0 -10 -7
-10 -15 0 -8 -5 -15 -10 -15 -19 0 -23 -31 -6 -49 15 -16 16 -25 6 -60 -6 -22
-17 -47 -25 -55 -11 -11 -12 -16 -2 -19 8 -3 6 -7 -6 -12 -10 -4 -27 -1 -42 9
-36 23 -54 21 -47 -6 5 -20 3 -21 -10 -10 -13 10 -17 10 -21 0 -3 -7 -5 3 -4
22 2 31 -1 35 -20 33 -21 -3 -22 -2 -6 17 13 14 19 16 25 7 5 -7 8 -2 8 16 0
20 -5 27 -20 27 -15 0 -20 7 -20 25 0 14 -5 25 -11 25 -7 0 -5 10 5 25 14 22
15 26 2 31 -8 3 -12 12 -9 20 4 10 -2 17 -16 21 -11 3 -21 12 -21 19 0 10 -7
13 -24 8 -22 -5 -24 -3 -23 28 2 23 -2 33 -13 33 -8 0 -17 9 -20 19 -8 29 -30
32 -30 4 0 -31 -35 -60 -68 -56 -34 4 -35 24 -5 65 26 36 18 48 -22 33 -26
-10 -102 -13 -77 -3 6 2 12 11 12 19 0 8 7 17 15 20 30 12 15 26 -19 20 -19
-4 -46 -4 -61 0 l-25 6 25 26 c20 20 25 34 23 69 -1 24 -6 46 -11 50 -16 10
16 22 45 16 21 -4 28 -2 28 10 0 19 -43 47 -73 47 -27 0 -52 23 -52 49 0 10
-9 16 -25 16 -29 0 -39 30 -13 38 10 4 27 12 38 19 11 7 22 14 24 15 1 1 -3 8
-10 16 -10 11 -22 12 -47 5 -38 -11 -76 -2 -65 15 4 6 6 24 5 39 -2 19 6 37
22 53 22 21 23 26 9 34 -9 4 -25 6 -36 3 -14 -3 -18 -1 -13 6 4 7 14 12 22 12
8 0 14 4 14 8 0 17 -13 21 -38 11 -38 -15 -51 5 -16 26 l29 16 -26 -5 c-29 -6
-43 11 -33 39 5 11 2 13 -12 8 -12 -4 -15 -3 -10 5 11 18 -2 14 -22 -5 -9 -10
-16 -28 -16 -41 1 -13 -4 -25 -10 -27 -6 -2 -20 -6 -31 -11 -18 -6 -17 -8 9
-13 39 -8 39 -25 1 -29 -27 -3 -30 -6 -29 -35 1 -30 15 -45 57 -60 18 -6 26
-81 12 -110 -8 -15 -11 -35 -8 -43 8 -21 -17 -64 -36 -64 -9 0 -23 -5 -31 -10
-12 -7 -12 -12 -2 -22 19 -19 14 -28 -16 -28 -16 0 -37 9 -47 20 -22 24 -35
26 -35 5 0 -13 -12 -15 -71 -11 -54 3 -75 1 -86 -10 -8 -8 -22 -14 -31 -14
-11 0 -13 3 -6 8 6 4 13 22 16 40 5 33 -5 39 -51 32 -14 -2 -13 12 5 54 6 15
4 18 -9 13 -11 -4 -14 -2 -10 9 4 10 -2 14 -22 14 -24 0 -26 3 -21 24 3 14 1
28 -4 31 -6 4 -7 11 -4 17 4 6 1 14 -6 18 -19 12 -40 -13 -33 -39 3 -13 0 -22
-8 -23 -8 0 -18 -2 -24 -3 -5 -2 -14 -3 -19 -4 -5 0 -4 -7 1 -13 6 -7 9 -29 9
-48 -1 -28 -5 -36 -23 -38 -27 -4 -30 -17 -7 -26 8 -3 12 -11 9 -16 -4 -6 -2
-17 4 -24 9 -10 7 -15 -9 -19 -15 -4 -20 -13 -20 -36 0 -17 -4 -31 -10 -31 -5
0 -10 5 -10 11 0 6 -7 17 -15 25 -13 14 -15 14 -15 0 0 -8 5 -18 10 -21 6 -4
8 -11 4 -16 -3 -5 0 -16 6 -24 8 -10 9 -15 2 -15 -6 0 -16 17 -22 39 -5 21
-17 44 -25 51 -8 7 -15 21 -15 31 0 10 -5 21 -10 24 -6 4 -9 14 -8 23 2 13 -4
17 -24 17 -33 -1 -35 11 -9 44 16 20 17 27 6 38 -8 7 -28 13 -45 13 -23 0 -33
5 -37 20 -3 11 -9 20 -14 20 -5 0 -9 7 -9 15 0 8 5 14 11 13 7 -2 15 9 20 25
6 24 5 27 -18 27 -15 0 -23 5 -20 13 2 6 14 12 26 11 29 -1 24 30 -7 34 -14 2
-22 10 -22 23 0 10 -7 19 -15 19 -8 0 -15 5 -15 10 0 6 7 10 15 10 19 0 19 14
1 29 -8 7 -17 23 -20 36 -3 13 -15 27 -27 30 -12 4 -18 12 -15 21 3 8 -1 14
-10 14 -11 0 -15 6 -11 19 5 22 -18 32 -48 20 -17 -6 -17 -8 -2 -8 17 -1 25
-21 8 -21 -6 0 -7 -16 -4 -35 4 -22 2 -35 -5 -35 -6 0 -9 7 -6 15 5 13 -1 17
-22 14 -4 0 -11 5 -16 13 -7 10 -9 10 -7 -2 3 -31 -2 -38 -32 -44 -17 -3 -28
-10 -25 -15 3 -5 -1 -14 -9 -21 -21 -17 -19 -30 4 -30 20 0 33 -30 21 -50 -5
-8 -30 -13 -61 -14 -52 -1 -77 -19 -42 -30 10 -3 24 -15 31 -27 14 -22 17 -22
-45 -4 -20 6 -22 4 -16 -32 7 -41 18 -54 40 -46 7 3 13 0 13 -6 0 -6 7 -11 15
-11 8 0 15 6 15 13 0 8 4 7 10 -3 16 -25 11 -33 -16 -27 -30 5 -61 -20 -45
-36 18 -18 13 -25 -24 -29 -31 -4 -36 -1 -42 21 -4 15 -7 29 -8 34 0 4 -4 6
-10 5 -5 -2 -10 -11 -9 -20 0 -13 -3 -15 -13 -7 -7 7 -10 21 -7 35 4 15 2 24
-5 24 -6 0 -11 6 -11 14 0 8 -14 26 -31 40 -17 14 -25 26 -19 26 17 0 7 35
-10 36 -8 1 -21 2 -28 3 -20 2 -3 21 19 21 29 0 23 16 -16 40 -19 12 -33 25
-30 30 3 4 -2 11 -11 14 -9 4 -14 13 -10 21 3 8 1 15 -5 15 -6 0 -8 8 -5 18 4
10 0 27 -8 37 -13 18 -15 16 -23 -25 -6 -27 -6 -47 0 -51 13 -9 -10 -49 -28
-49 -18 0 -19 -12 -3 -28 16 -16 -8 -42 -39 -42 -31 0 -21 -16 20 -34 l32 -13
-27 -8 c-16 -4 -28 -11 -28 -15 0 -4 -14 -22 -30 -40 -24 -25 -28 -36 -19 -46
8 -10 8 -14 1 -14 -6 0 -9 -6 -6 -14 3 -9 -5 -21 -20 -31 -28 -19 -34 -40 -13
-48 9 -4 9 -7 -1 -15 -9 -6 -11 -20 -7 -44 6 -30 10 -34 29 -31 32 7 41 -22
16 -49 -11 -12 -20 -28 -20 -36 0 -8 -14 -27 -32 -43 -21 -21 -28 -33 -21 -40
12 -12 5 -51 -7 -44 -14 9 -23 -15 -11 -29 6 -7 8 -15 5 -19 -3 -3 -1 -15 6
-26 10 -20 8 -21 -22 -19 -31 3 -33 1 -31 -27 2 -27 -3 -33 -46 -54 -29 -14
-56 -21 -66 -17 -10 3 -15 9 -12 12 3 3 2 16 -3 29 -7 18 -4 29 13 48 28 31
49 67 40 67 -5 0 -13 12 -20 26 -10 22 -9 26 10 34 20 8 18 9 -10 9 -31 1 -33
3 -33 39 0 52 -13 70 -35 49 -24 -25 -35 -12 -23 29 12 45 7 50 -26 29 -25
-17 -26 -17 -26 3 0 12 5 24 10 27 6 3 10 18 10 33 0 33 8 45 38 61 12 6 22
18 22 26 0 17 -26 20 -35 5 -11 -17 -37 -11 -61 16 -26 27 -31 40 -12 28 8 -5
9 -2 5 9 -5 13 -1 17 16 17 23 0 47 17 47 32 0 4 -11 8 -25 8 -18 0 -25 5 -25
20 0 13 -7 20 -19 20 -21 0 -35 38 -25 64 3 9 1 16 -6 16 -15 0 -3 41 18 58
21 16 32 15 32 -3 0 -18 26 -20 36 -3 5 7 3 8 -5 4 -8 -5 -14 -1 -17 11 -7 27
-62 59 -77 44 -6 -6 -15 -11 -21 -11 -5 0 -1 8 10 19 10 10 23 16 27 14 11 -7
38 17 31 28 -8 14 -34 10 -52 -8 -16 -16 -17 -15 -22 12 -3 16 -10 30 -17 32
-14 5 -37 -33 -28 -47 4 -6 -1 -13 -9 -16 -19 -7 -22 -44 -3 -44 9 0 9 -2 -1
-8 -7 -5 -10 -16 -6 -26 3 -9 3 -16 -2 -15 -30 5 -36 -4 -11 -17 32 -17 35
-49 7 -64 -11 -6 -20 -16 -20 -23 0 -7 -9 -21 -21 -30 -19 -17 -20 -20 -5 -36
9 -10 16 -22 16 -27 0 -5 -5 -2 -10 6 -6 10 -12 12 -19 5 -16 -16 -18 -59 -3
-61 6 -1 17 -2 23 -3 5 0 7 -6 4 -12 -4 -6 -13 -8 -21 -5 -15 6 -20 -19 -5
-28 4 -3 6 -17 3 -31 -4 -21 -1 -25 21 -25 14 0 28 -4 32 -9 7 -12 -65 -81
-83 -81 -22 0 -72 -33 -72 -48 0 -7 -14 -18 -30 -23 -38 -14 -41 -38 -4 -31
18 3 30 0 36 -11 7 -13 14 -14 34 -7 33 13 34 13 34 -5 0 -8 -4 -15 -9 -15 -5
0 -16 -16 -25 -35 -9 -19 -22 -35 -29 -36 -7 -1 -21 -2 -32 -3 -11 0 -20 -6
-20 -13 0 -6 -3 -15 -7 -19 -5 -4 -8 -2 -8 4 0 23 -20 11 -26 -15 -9 -39 -28
-83 -36 -83 -3 0 -9 6 -11 13 -4 9 -6 9 -6 0 -1 -6 3 -15 9 -18 6 -4 4 -17 -5
-36 -12 -22 -12 -29 -3 -27 8 2 13 -9 14 -29 1 -18 -2 -33 -6 -33 -5 0 -12 -9
-15 -20 -4 -12 -15 -20 -29 -20 -12 0 -27 -5 -34 -12 -8 -8 -15 -8 -24 0 -9 7
-18 6 -32 -4 -15 -11 -22 -11 -27 -2 -13 21 -20 2 -10 -25 8 -20 7 -30 -5 -42
-8 -8 -12 -19 -9 -25 10 -16 -22 -12 -39 5 -19 19 -40 19 -32 0 5 -13 2 -14
-17 -4 -12 7 -17 14 -10 16 7 3 2 14 -13 30 -13 14 -24 32 -24 39 0 8 -11 14
-25 14 -14 0 -25 5 -25 11 0 5 6 7 13 3 6 -4 0 4 -16 19 -15 14 -27 31 -27 37
0 20 -14 37 -101 113 -12 10 -17 34 -18 86 -2 95 13 123 83 156 22 11 34 21
28 23 -7 2 -9 8 -6 13 4 6 10 6 18 0 16 -14 43 14 50 50 2 13 5 25 7 27 1 1 2
5 3 10 1 4 5 13 10 21 6 9 2 19 -11 30 -12 9 -26 26 -32 38 -14 27 -28 29 -34
6 -4 -17 -5 -17 -6 -1 0 10 -15 25 -32 34 -20 10 -28 11 -24 3 6 -9 2 -11 -13
-7 -15 4 -20 1 -19 -12 0 -9 6 -17 12 -16 5 1 12 -3 15 -9 3 -6 -19 -10 -57
-11 -45 0 -63 4 -63 13 0 7 -9 13 -20 13 -11 0 -20 5 -20 11 0 7 -11 9 -26 6
-19 -3 -34 3 -57 24 -17 16 -34 29 -37 30 -37 6 -53 4 -57 -8 -3 -7 -15 -13
-27 -13 -12 0 -27 -5 -33 -11 -6 -6 -19 -9 -29 -7 -23 4 -58 -36 -50 -57 3 -9
0 -12 -8 -9 -8 3 -17 0 -21 -6 -5 -8 -11 -8 -21 1 -12 10 -13 9 -8 -5 3 -9 1
-16 -5 -16 -6 0 -11 7 -11 15 0 11 -12 15 -40 16 -22 1 -44 3 -50 4 -5 1 -15
3 -21 4 -5 0 -7 6 -4 11 4 6 3 10 -2 9 -18 -3 -49 2 -62 10 -12 8 -12 12 -2
25 11 13 11 16 -3 16 -12 0 -16 10 -16 38 0 20 -9 52 -20 70 -11 17 -17 32
-13 32 3 0 -1 8 -9 18 -8 9 -15 27 -16 39 -1 24 -22 61 -34 59 -4 0 -19 14
-32 33 -19 26 -23 38 -15 48 9 10 8 17 -2 30 -12 14 -12 16 0 8 10 -5 12 -4 7
3 -4 7 -14 12 -22 12 -8 0 -14 4 -14 9 0 5 -11 12 -24 15 -14 3 -28 15 -31 26
-4 12 -16 20 -28 21 -12 0 -16 3 -9 6 25 10 10 18 -38 20 l-50 1 0 -2769 0
-2769 7500 0 7500 0 0 3588 c0 1974 -3 3591 -6 3595 -4 3 -21 0 -39 -7 -18 -8
-44 -12 -58 -9 -19 4 -29 0 -33 -11 -3 -9 -10 -13 -15 -10 -13 8 -11 -10 2
-23 6 -6 18 -9 25 -6 8 3 14 1 14 -3 0 -19 -16 -29 -45 -29 -32 0 -56 21 -48
42 3 7 0 13 -6 13 -6 0 -11 -4 -11 -10 0 -14 -33 1 -49 23 -11 16 -23 19 -68
15 -57 -5 -66 0 -68 40 0 16 8 30 25 40 14 9 35 24 48 33 l23 18 -32 16 c-23
12 -28 20 -20 28 17 17 13 26 -7 20 -16 -4 -19 1 -18 32 1 20 8 40 15 44 17
11 5 51 -14 51 -8 0 -17 15 -21 35 -5 30 -12 36 -44 45 -31 8 -42 18 -56 50
l-17 39 -29 -17 c-38 -22 -55 -6 -39 38 9 28 8 33 -9 37 -11 3 -20 10 -20 15
0 5 9 6 20 3 11 -3 20 -2 20 3 0 5 -9 12 -20 15 -11 3 -20 12 -20 21 0 11 -9
16 -26 16 -19 0 -25 4 -20 15 3 9 0 15 -9 15 -18 0 -27 15 -31 50 -3 24 -1 27
19 22 21 -5 21 -5 4 21 -21 32 -21 37 -2 37 13 0 14 4 5 20 -7 14 -7 20 0 20
5 0 10 5 10 10 0 6 -7 10 -15 10 -9 0 -15 -9 -15 -23 0 -28 -34 -64 -45 -48
-3 6 -3 16 1 23 4 6 8 24 9 40 2 23 0 26 -11 18 -10 -9 -15 -3 -24 29 -13 49
-29 62 -24 20 3 -23 -1 -32 -19 -39 -18 -7 -19 -9 -3 -9 11 -1 16 -6 13 -15
-3 -8 1 -17 9 -20 8 -3 14 -12 14 -20 0 -17 -31 -30 -40 -17 -3 6 -13 2 -23
-9 -9 -11 -23 -20 -30 -20 -17 0 -87 -48 -87 -60 0 -5 6 -7 14 -4 8 3 23 1 32
-4 16 -9 13 -13 -22 -29 -21 -11 -38 -24 -37 -30 4 -17 -19 -31 -57 -35 -42
-4 -50 -33 -10 -34 14 0 31 -3 38 -8 7 -4 19 0 28 8 21 22 34 20 34 -4 0 -12
-7 -20 -17 -20 -16 0 -16 -2 -3 -11 12 -8 10 -9 -7 -4 -17 5 -23 2 -23 -10 0
-8 -7 -18 -15 -21 -8 -4 -15 -12 -15 -19 0 -8 -4 -17 -10 -20 -6 -4 -6 4 1 22
5 15 15 31 22 35 6 4 9 10 5 13 -3 3 -13 -2 -22 -11 -10 -10 -26 -14 -42 -11
-21 4 -25 1 -21 -14 4 -13 -3 -21 -24 -28 -35 -12 -40 -36 -5 -27 19 5 25 1
30 -19 8 -30 22 -32 36 -5 6 11 17 20 24 20 14 0 30 -29 21 -38 -3 -3 -5 -2
-5 3 0 5 -11 -2 -24 -14 -28 -27 -72 -26 -70 2 2 23 -17 22 -23 -2 -2 -10 -15
-24 -28 -31 -14 -8 -27 -27 -32 -49 -6 -27 -17 -40 -42 -53 -37 -19 -55 -34
-28 -25 27 10 41 -2 25 -20 -11 -14 -7 -15 40 -8 75 10 70 -6 -30 -89 -32 -27
-58 -54 -58 -60 0 -6 7 -3 14 7 8 11 17 14 20 8 4 -5 -3 -16 -14 -24 -20 -14
-20 -14 5 -25 14 -6 25 -18 25 -27 0 -8 5 -15 10 -15 6 0 10 -7 10 -15 0 -8 7
-15 15 -15 8 0 15 -5 15 -11 0 -6 -8 -8 -19 -4 -10 3 -29 1 -42 -4 -17 -6 -28
-5 -37 5 -7 8 -17 12 -23 9 -5 -4 -9 1 -9 9 0 9 -4 16 -9 16 -6 0 -3 12 5 28
18 35 19 61 2 44 -18 -18 -28 -15 -28 8 0 11 -4 20 -10 20 -5 0 -10 12 -10 26
l0 25 -26 -20 c-33 -26 -84 -30 -64 -6 11 13 11 20 0 40 -7 14 -19 25 -27 25
-7 0 -13 8 -12 18 0 10 3 12 6 5 2 -7 11 -13 19 -13 8 0 11 6 8 15 -5 11 1 15
22 16 l29 0 -25 11 -25 10 23 9 c12 4 22 15 22 24 0 19 -11 19 -36 0 -20 -15
-66 -20 -77 -8 -7 6 33 47 55 56 11 4 11 6 0 6 -7 1 -22 -3 -32 -9 -21 -11
-53 -3 -44 12 3 5 13 7 21 4 9 -4 13 -1 11 6 -3 7 -21 12 -42 12 -33 0 -37 2
-31 21 4 11 9 34 12 52 4 24 13 36 39 48 19 9 34 18 34 20 0 2 -16 2 -36 0
-20 -1 -41 3 -47 10 -8 8 -18 9 -32 3 -14 -6 -31 -5 -50 3 -20 8 -25 13 -15
16 9 2 22 13 29 25 11 18 11 20 -2 15 -11 -4 -13 0 -10 14 3 10 9 19 14 19 5
0 9 5 9 11 0 5 -5 7 -11 4 -6 -4 -5 1 2 13 17 27 5 55 -21 47 -21 -7 -28 9
-10 20 6 4 7 12 3 18 -4 7 -8 26 -8 42 0 31 -1 32 -50 21 l-30 -8 28 30 c20
21 25 31 15 34 -8 3 -13 22 -13 55 0 28 3 49 8 46 4 -2 7 1 7 6 0 6 -4 11 -10
11 -5 0 -10 7 -10 15 0 8 -7 15 -15 15 -8 0 -15 -6 -15 -14 0 -8 -8 -13 -17
-11 -35 6 -6 52 35 57 l27 3 -37 25 c-22 14 -36 31 -33 38 7 19 -21 58 -28 40
-4 -9 -6 -7 -6 5 -1 25 -16 21 -29 -8z m-1818 -3341 c3 -8 15 -14 26 -14 12 0
18 -4 15 -10 -3 -5 2 -21 11 -35 9 -14 14 -32 10 -40 -4 -10 2 -19 16 -24 l22
-8 -22 -5 c-15 -4 -22 -2 -22 8 0 8 -10 14 -26 14 -14 0 -23 -4 -19 -10 3 -6
-4 -10 -17 -10 l-23 -1 22 -18 c18 -15 20 -20 8 -25 -8 -3 -15 -10 -15 -16 0
-6 5 -8 10 -5 6 3 10 2 10 -4 0 -5 3 -17 6 -25 5 -12 2 -15 -10 -10 -11 4 -16
1 -16 -10 0 -9 -6 -16 -12 -16 -18 1 -48 25 -48 39 0 6 -6 11 -14 11 -8 0 -18
10 -22 22 -6 19 -7 20 -16 4 -8 -13 -13 -15 -24 -5 -8 6 -14 17 -14 23 0 6 5
4 11 -4 9 -13 10 -13 6 0 -2 9 -15 15 -33 14 -28 -1 -57 23 -47 39 3 5 16 6
28 3 13 -3 27 -1 30 4 4 6 11 8 16 5 11 -7 11 -3 3 19 -3 9 -13 16 -21 16 -8
0 -11 5 -7 11 6 11 33 9 65 -5 11 -5 18 -1 22 13 3 14 11 18 26 14 25 -6 71 4
71 16 0 5 -9 11 -20 14 -11 3 -20 12 -20 21 0 18 26 11 34 -10z m-3630 -210
c3 -9 6 -25 6 -36 0 -16 5 -19 25 -16 14 3 25 2 25 -1 0 -13 -24 -31 -42 -31
-13 0 -18 -8 -18 -25 0 -14 -9 -30 -20 -37 -11 -7 -20 -18 -20 -25 0 -16 -16
-16 -53 0 -26 11 -27 13 -12 35 9 12 21 20 26 17 5 -4 9 -1 9 5 0 7 -9 14 -20
17 -16 4 -18 9 -9 26 10 17 9 19 -7 13 -11 -3 -3 7 16 24 19 16 45 30 58 30
13 0 20 4 17 10 -3 6 -2 10 3 10 6 0 13 -7 16 -16z m4064 -56 c40 -19 67 -39
72 -53 5 -13 15 -25 22 -28 11 -4 10 -7 -1 -15 -11 -8 -8 -17 15 -46 16 -20
34 -36 40 -36 13 0 36 -48 29 -60 -3 -5 4 -11 15 -15 11 -3 20 -11 20 -17 0
-5 10 -21 22 -33 13 -13 23 -32 23 -42 0 -13 6 -17 23 -15 20 3 22 0 16 -22
-5 -23 -3 -26 20 -26 14 0 26 5 26 10 0 6 5 10 12 10 9 0 9 -3 0 -12 -9 -9 -8
-16 4 -29 8 -9 17 -34 20 -55 3 -21 9 -43 14 -48 16 -16 12 -25 -21 -42 -25
-12 -29 -18 -18 -25 10 -6 10 -9 2 -9 -19 0 -15 -18 5 -22 13 -3 10 -9 -17
-25 -43 -27 -168 -27 -183 1 -5 9 -15 16 -23 16 -7 0 -15 4 -17 10 -2 6 -15 4
-32 -5 -22 -12 -32 -13 -40 -4 -8 8 -7 13 2 16 27 10 1 73 -32 73 -9 0 -16 7
-16 15 0 8 -4 15 -9 15 -5 0 -11 10 -13 23 -2 12 -9 21 -15 20 -7 -2 -10 4 -7
12 4 10 0 15 -11 15 -13 0 -16 6 -12 27 8 42 -10 82 -36 79 -13 -2 -32 1 -42
5 -18 6 -19 7 -2 13 53 18 53 19 20 29 -31 9 -46 27 -23 27 6 0 10 9 10 20 0
13 10 24 25 30 33 12 32 15 -5 14 -49 -2 -50 -3 -47 -26 2 -26 -24 -34 -80
-23 -24 4 -33 10 -29 20 7 20 -27 38 -42 23 -9 -9 -16 -7 -27 8 -14 19 -21 43
-8 31 3 -4 14 0 24 9 11 10 28 15 44 12 14 -3 25 -1 25 3 0 5 -9 9 -20 9 -12
0 -26 12 -35 31 -16 31 -16 31 7 23 44 -14 61 -10 68 16 3 14 16 27 30 31 26
7 23 9 -39 12 -31 2 -51 47 -21 47 11 0 29 -5 40 -12 14 -9 25 -9 42 -1 77 36
93 35 186 -9z m-687 -1435 c-10 -4 -8 -9 10 -19 13 -7 18 -13 10 -14 -11 0
-11 -3 0 -16 10 -12 10 -17 1 -23 -14 -8 -6 -41 9 -41 5 0 9 -4 9 -10 0 -5 9
-19 20 -30 26 -26 25 -40 -1 -40 -12 0 -23 -8 -26 -20 -7 -26 -49 -27 -62 -1
-6 10 -7 22 -3 26 4 5 1 5 -5 1 -8 -4 -13 -2 -13 6 0 7 -10 18 -22 23 -23 10
-27 46 -7 53 6 3 6 9 -1 17 -8 9 -4 17 16 30 21 13 24 19 13 26 -11 7 -11 9 2
9 9 0 19 7 23 15 3 8 13 15 23 14 13 0 14 -2 4 -6z m390 -33 c6 0 7 -4 4 -10
-3 -5 -15 -10 -26 -10 -12 0 -19 -7 -19 -19 0 -14 -5 -18 -20 -14 -14 4 -20 0
-20 -10 0 -26 12 -47 26 -47 8 0 14 -7 14 -15 0 -12 7 -14 26 -9 25 6 26 5 20
-20 -5 -20 -1 -34 14 -53 11 -14 20 -31 20 -38 0 -6 7 -26 16 -43 8 -18 13
-36 9 -42 -3 -5 -3 -16 2 -22 4 -7 9 -21 10 -31 2 -14 -2 -18 -19 -16 -13 2
-29 -1 -37 -5 -10 -6 -12 -5 -7 2 5 8 -2 10 -23 6 -45 -9 -74 2 -93 36 -11 19
-22 28 -29 24 -7 -4 -9 -3 -5 4 3 6 2 13 -4 17 -5 3 -10 18 -10 32 0 22 -2 24
-15 13 -9 -7 -13 -15 -11 -17 5 -5 -39 -53 -48 -53 -8 0 -66 54 -66 62 0 5 7
8 15 8 8 0 15 -4 15 -9 0 -5 11 -11 25 -13 18 -4 25 -1 26 11 2 22 2 23 -7 45
-6 16 -4 18 10 13 12 -5 15 -3 9 6 -4 6 -8 17 -9 22 0 6 -2 15 -2 22 -1 7 -9
10 -17 7 -8 -4 -15 -1 -15 6 0 6 -5 8 -12 4 -7 -5 -9 -2 -5 8 4 11 1 14 -12
11 -19 -5 -48 38 -37 56 4 6 21 11 38 11 22 0 29 -4 25 -15 -7 -16 9 -30 34
-30 25 0 50 -30 36 -44 -8 -8 -5 -11 12 -11 12 0 19 4 16 10 -3 6 0 10 9 10
15 0 16 16 3 37 -10 16 2 43 19 43 19 0 18 16 -1 24 -8 3 -15 10 -15 16 0 6 4
9 9 6 4 -3 26 4 47 14 21 11 45 18 52 15 8 -3 18 -5 23 -5z"/>
<path d="M10850 7973 c0 -20 -3 -21 -25 -13 -17 6 -25 6 -25 -1 0 -6 9 -13 20
-16 28 -7 19 -28 -11 -28 -14 0 -25 -7 -27 -17 -5 -26 13 -29 38 -8 44 38 57
15 14 -25 -19 -18 -24 -30 -19 -47 4 -16 3 -19 -3 -10 -8 11 -10 11 -15 -1 -3
-9 1 -21 9 -27 8 -7 14 -20 14 -30 0 -12 6 -16 23 -13 25 4 55 -12 44 -24 -5
-4 -12 -1 -17 7 -5 8 -12 11 -16 8 -3 -4 0 -14 9 -22 8 -8 17 -12 21 -9 3 3 8
-1 12 -10 5 -14 7 -14 24 1 18 15 18 16 -7 38 -14 12 -22 27 -19 33 4 6 3 11
-2 11 -5 0 -12 9 -15 20 -3 11 -1 18 3 15 10 -6 24 51 21 85 -1 18 1 21 7 12
8 -11 10 -11 15 1 3 9 -4 20 -19 27 -27 15 -30 29 -11 50 10 12 9 12 -6 0 -16
-12 -20 -12 -28 1 -7 11 -9 9 -9 -8z"/>
<path d="M5267 5939 c-14 -16 -16 -23 -7 -35 15 -17 6 -44 -14 -44 -13 0 -14
-5 -5 -26 10 -28 4 -64 -12 -64 -5 0 -19 6 -30 13 -17 10 -23 9 -26 -1 -3 -6
-9 -9 -15 -6 -13 8 23 -48 37 -58 20 -15 34 -7 40 22 8 36 35 40 64 9 12 -13
21 -17 26 -10 3 6 15 11 27 11 17 0 20 -5 16 -30 -5 -31 9 -44 33 -29 11 7 11
9 -3 9 -28 0 -21 27 13 52 20 15 29 29 25 41 -3 14 0 16 15 12 11 -4 19 -2 19
4 0 6 -7 11 -15 11 -8 0 -15 7 -15 15 0 19 -11 19 -36 0 -11 -8 -14 -15 -6
-15 6 0 12 -7 12 -15 0 -22 -27 -7 -34 18 -4 15 1 27 14 39 11 9 20 21 20 27
0 11 -6 13 -49 15 -18 1 -27 8 -31 26 -7 31 -39 36 -63 9z"/>
<path d="M9830 5945 c0 -21 22 -54 33 -49 9 3 19 -6 27 -26 11 -27 11 -36 -2
-58 -12 -22 -13 -31 -2 -51 6 -13 11 -35 9 -50 -2 -14 2 -29 8 -33 6 -4 11
-25 10 -48 -1 -23 2 -38 8 -35 5 4 9 -3 9 -14 0 -15 6 -19 28 -18 21 2 28 8
30 30 4 36 16 34 29 -5 5 -18 8 -23 6 -12 -2 14 4 24 14 28 15 6 14 9 -7 19
-32 16 -43 87 -13 87 19 0 63 41 63 58 0 5 -18 1 -40 -10 -38 -19 -42 -19 -59
-4 -11 10 -22 32 -25 51 -4 22 -13 35 -27 38 -12 3 -18 10 -14 16 3 6 1 11 -4
11 -16 0 -13 26 4 40 13 11 15 8 15 -19 0 -21 5 -31 15 -31 9 0 15 9 15 25 0
14 -4 25 -9 25 -5 0 -12 10 -16 23 -4 13 -8 17 -12 9 -2 -6 -8 -10 -12 -7 -10
6 -81 15 -81 10z"/>
<path d="M10964 5663 c4 -14 1 -23 -9 -27 -9 -3 -14 -10 -11 -15 4 -5 0 -12
-6 -15 -7 -4 -4 -5 7 -3 11 1 33 -9 50 -25 28 -26 28 -28 8 -28 -12 0 -25 -4
-28 -10 -3 -5 1 -10 9 -10 8 0 22 -7 30 -16 19 -18 36 -10 36 17 0 11 4 18 9
15 5 -4 16 -3 25 0 12 5 13 10 5 25 -12 23 -4 39 20 39 9 0 22 5 29 12 26 26
12 36 -55 41 -38 3 -81 9 -97 13 -25 6 -28 5 -22 -13z"/>
<path d="M6477 4713 c-4 -7 -10 -42 -14 -79 -5 -59 -8 -65 -19 -49 -8 10 -17
16 -20 12 -9 -9 15 -75 29 -80 7 -2 9 -7 6 -11 -3 -4 -19 -2 -34 4 -15 6 -30
8 -33 6 -10 -11 20 -34 54 -40 23 -5 32 -11 27 -19 -4 -7 -6 -20 -5 -29 2 -10
-3 -18 -10 -18 -10 0 -10 -2 1 -9 8 -5 16 -25 17 -45 3 -28 0 -34 -13 -29 -13
5 -13 3 2 -20 16 -25 44 -29 29 -5 -4 6 1 17 11 25 17 12 17 13 2 13 -24 0
-27 77 -3 92 8 6 8 8 -1 8 -20 0 -15 39 7 67 11 14 17 30 13 36 -5 8 -8 7 -11
-1 -6 -19 -22 -14 -22 8 0 11 5 20 11 20 8 0 10 13 5 38 -15 93 -22 116 -29
105z"/>
<path d="M4905 3440 c-3 -5 -17 -10 -31 -10 -26 0 -31 -9 -13 -27 8 -8 5 -14
-10 -23 -24 -12 -19 -33 5 -23 12 4 15 1 12 -13 -2 -12 -11 -18 -23 -16 -13 1
-26 -8 -37 -28 -15 -26 -21 -29 -37 -20 -34 18 -45 12 -27 -15 9 -14 13 -25
10 -25 -4 0 1 -9 11 -20 10 -11 24 -20 31 -20 29 0 23 -20 -11 -34 -37 -16
-50 -42 -15 -31 14 4 20 2 20 -8 0 -8 9 -17 21 -20 31 -8 21 -41 -14 -45 -32
-4 -60 19 -51 42 4 9 1 16 -6 16 -7 0 -10 7 -6 16 6 17 -9 44 -25 44 -5 0 -9
-9 -9 -20 0 -11 5 -20 11 -20 6 0 9 -7 5 -15 -3 -8 -1 -15 4 -15 6 0 10 -5 10
-11 0 -5 -5 -7 -10 -4 -6 3 -17 -1 -26 -9 -8 -9 -22 -16 -29 -16 -9 0 -6 -9
10 -26 14 -15 22 -30 19 -35 -9 -15 19 -36 55 -41 28 -4 32 -2 28 14 -3 10 -1
18 4 18 5 0 9 7 9 15 0 8 9 15 20 15 13 0 20 -7 20 -19 0 -10 7 -24 15 -31 8
-7 15 -22 15 -33 0 -19 1 -20 20 -2 20 18 20 17 20 -8 0 -34 10 -57 24 -57 6
0 20 -11 30 -25 20 -27 36 -32 36 -12 0 6 5 19 10 27 7 12 14 9 37 -17 16 -17
41 -35 56 -38 33 -9 34 -14 1 -40 -25 -20 -25 -21 -9 -57 14 -35 19 -38 53
-38 29 0 45 -7 64 -27 14 -16 24 -36 23 -45 -2 -10 1 -18 6 -18 6 0 6 -8 -1
-19 -19 -36 -10 -46 14 -17 14 16 22 35 19 43 -3 8 2 13 12 13 9 0 14 -4 11
-9 -7 -10 16 -21 44 -21 23 0 34 28 19 47 -7 7 -8 17 -4 21 4 4 10 1 12 -5 3
-7 13 -13 24 -13 10 0 19 6 19 13 1 7 6 4 15 -6 13 -18 14 -18 24 1 6 12 20
24 32 27 15 5 17 10 9 20 -8 10 -7 16 7 24 15 9 16 12 4 20 -8 5 -20 7 -26 5
-14 -6 -14 44 0 66 6 10 4 12 -7 7 -21 -7 -31 3 -18 18 15 18 23 102 10 110
-8 5 -6 13 6 26 9 10 14 25 11 33 -4 10 -1 13 9 9 7 -3 14 0 14 6 0 6 9 11 20
11 11 0 20 4 20 9 0 10 -52 23 -102 26 -46 2 -59 12 -35 29 27 20 20 46 -15
61 -18 7 -34 9 -36 4 -6 -15 -43 11 -41 29 2 9 -1 39 -5 66 -6 36 -4 51 6 58
10 7 10 11 -4 22 -10 7 -18 21 -18 31 0 37 -13 4 -15 -38 -4 -66 -26 -191 -36
-201 -5 -6 -9 -27 -9 -47 0 -32 -4 -39 -36 -54 -42 -20 -67 -8 -44 20 11 14
11 18 1 25 -9 5 -10 9 -2 14 6 4 9 12 6 17 -4 5 1 9 10 9 9 0 14 4 11 9 -3 5
-14 7 -24 4 -18 -4 -122 53 -122 68 0 13 24 17 43 7 19 -10 25 6 6 18 -6 3 -9
19 -5 35 4 22 1 31 -14 39 -12 6 -17 16 -13 26 4 10 -2 17 -16 21 -11 3 -21
12 -21 19 0 8 -9 14 -20 14 -21 0 -27 15 -10 25 18 11 10 26 -12 25 -36 -3
-44 0 -29 9 7 5 10 14 7 20 -9 14 -23 14 -31 1z"/>
</g>
</svg>
