<?xml version="1.0" standalone="no"?>
<!DOCTYPE svg PUBLIC "-//W3C//DTD SVG 20010904//EN"
 "http://www.w3.org/TR/2001/REC-SVG-20010904/DTD/svg10.dtd">
<svg version="1.0" xmlns="http://www.w3.org/2000/svg"
 width="704.000000pt" height="566.000000pt" viewBox="0 0 704.000000 566.000000"
 preserveAspectRatio="xMidYMid meet">

<g transform="translate(0.000000,566.000000) scale(0.100000,-0.100000)"
fill="#000000" stroke="none">
<path d="M3455 4724 c-414 -28 -794 -175 -1116 -432 -369 -294 -629 -753 -700
-1237 -8 -50 -14 -173 -14 -275 0 -323 53 -557 190 -845 173 -365 435 -645
798 -854 192 -110 464 -201 692 -232 117 -16 394 -15 515 1 408 54 810 254
1111 552 288 286 489 689 550 1103 8 50 14 173 14 275 0 323 -53 557 -190 845
-252 530 -709 899 -1300 1048 -55 14 -136 30 -180 36 -92 11 -297 20 -370 15z
m365 -139 c301 -44 593 -165 832 -346 105 -80 276 -251 355 -354 408 -541 486
-1273 198 -1880 -268 -567 -792 -950 -1415 -1036 -109 -15 -351 -15 -460 0
-312 43 -619 169 -862 352 -113 85 -281 256 -365 370 -244 332 -358 680 -357
1094 1 276 51 511 164 760 143 318 426 632 728 807 210 121 426 198 652 233
116 17 412 18 530 0z"/>
<path d="M3517 4283 c-266 -331 -447 -721 -447 -961 0 -145 35 -237 114 -309
73 -66 184 -114 286 -125 l25 -3 5 -163 c6 -183 5 -182 80 -182 75 0 74 -1 80
182 l5 163 25 3 c48 5 145 34 190 57 65 33 141 105 168 158 110 220 1 605
-292 1027 -74 108 -164 220 -176 220 -5 0 -34 -30 -63 -67z m33 -313 l0 -260
-120 80 c-66 44 -120 83 -120 86 0 20 223 354 235 354 3 0 5 -117 5 -260z
m138 162 c67 -94 162 -244 162 -255 0 -5 -181 -132 -227 -161 -10 -6 -13 48
-13 253 0 144 2 261 5 261 2 0 35 -44 73 -98z m-271 -400 l128 -88 3 -123 3
-123 -175 119 c-97 65 -176 124 -176 131 0 19 71 172 81 172 4 0 65 -40 136
-88z m507 8 c20 -43 36 -85 36 -92 0 -10 -239 -181 -337 -241 -10 -6 -13 16
-13 112 l0 120 132 90 c72 50 135 91 139 91 3 0 23 -36 43 -80z m-552 -285
l177 -120 1 -108 0 -109 -28 19 c-16 10 -111 74 -211 142 l-181 124 6 36 c11
66 38 142 49 139 5 -2 90 -57 187 -123z m630 73 c9 -29 19 -69 22 -89 l6 -36
-197 -135 c-109 -74 -204 -138 -210 -142 -10 -6 -13 17 -13 101 l1 108 182
123 c100 67 184 122 187 122 4 0 13 -24 22 -52z m-657 -339 l205 -142 0 -58 0
-59 -42 6 c-73 10 -160 35 -201 56 -60 30 -133 103 -155 156 -23 55 -39 182
-23 182 6 0 103 -64 216 -141z m690 74 c-10 -92 -38 -154 -95 -207 -72 -67
-151 -100 -287 -120 l-43 -6 0 58 0 59 203 140 c111 78 208 141 215 142 11 1
12 -13 7 -66z m-435 -523 c0 -133 -1 -140 -20 -140 -19 0 -20 7 -20 140 0 133
1 140 20 140 19 0 20 -7 20 -140z"/>
<path d="M2654 2250 c-46 -18 -64 -57 -64 -136 0 -72 -1 -74 -25 -74 -21 0
-25 -5 -25 -30 0 -25 4 -30 25 -30 l25 0 0 -165 0 -165 25 0 25 0 0 165 0 165
75 0 75 0 0 -165 0 -165 30 0 30 0 -2 193 -3 192 -102 3 -103 3 0 52 c0 67 17
100 58 112 24 7 32 15 32 32 0 19 -5 23 -27 22 -16 0 -38 -4 -49 -9z"/>
<path d="M2786 2179 c-29 -42 21 -91 60 -59 20 18 17 57 -5 70 -28 15 -38 13
-55 -11z"/>
<path d="M3440 2100 l0 -60 -35 0 c-32 0 -35 -2 -35 -30 0 -28 3 -30 35 -30
l35 0 0 -165 0 -165 25 0 25 0 0 165 0 165 45 0 c43 0 45 1 45 30 0 29 -2 30
-45 30 l-45 0 0 60 c0 57 -1 60 -25 60 -24 0 -25 -3 -25 -60z"/>
<path d="M3105 2037 c-17 -8 -36 -21 -44 -30 -19 -24 -31 -21 -31 9 0 21 -4
25 -22 22 -23 -3 -23 -4 -26 -195 l-2 -193 23 0 c24 0 24 2 29 123 6 126 16
165 54 198 27 23 59 29 99 18 55 -16 65 -46 65 -204 l0 -135 30 0 30 0 0 143
c0 155 -10 192 -60 229 -34 24 -107 32 -145 15z"/>
<path d="M3774 2036 c-17 -8 -40 -26 -52 -40 l-21 -27 -3 33 c-2 28 -7 33 -28
33 l-25 0 -3 -192 -2 -193 30 0 30 0 0 118 c0 95 4 124 19 152 26 50 78 83
119 76 28 -4 32 -2 32 19 0 36 -40 45 -96 21z"/>
<path d="M4021 2040 c-81 -19 -133 -97 -132 -199 0 -93 37 -154 114 -186 72
-30 158 -15 215 38 38 36 38 38 11 55 -18 12 -24 11 -41 -8 -12 -12 -36 -28
-54 -36 -85 -35 -157 3 -184 97 l-9 29 161 0 160 0 -6 38 c-18 98 -59 151
-133 171 -43 12 -54 12 -102 1z m89 -50 c25 0 76 -53 82 -85 l5 -25 -123 0
c-138 0 -140 1 -99 62 25 37 74 61 103 52 8 -2 22 -4 32 -4z"/>
<path d="M4451 2040 c-80 -19 -133 -98 -132 -198 0 -94 37 -155 114 -187 72
-30 158 -15 215 38 38 36 38 38 11 55 -18 12 -24 11 -41 -8 -12 -12 -36 -28
-54 -36 -85 -35 -157 3 -184 97 l-9 29 161 0 160 0 -6 38 c-18 98 -59 151
-133 171 -43 12 -54 12 -102 1z m89 -50 c25 0 76 -53 82 -85 l5 -25 -123 0
c-138 0 -140 1 -99 62 25 37 74 61 103 52 8 -2 22 -4 32 -4z"/>
</g>
</svg>
