<?xml version="1.0" standalone="no"?>
<!DOCTYPE svg PUBLIC "-//W3C//DTD SVG 20010904//EN"
 "http://www.w3.org/TR/2001/REC-SVG-20010904/DTD/svg10.dtd">
<svg version="1.0" xmlns="http://www.w3.org/2000/svg"
 width="868.000000pt" height="380.000000pt" viewBox="0 0 868.000000 380.000000"
 preserveAspectRatio="xMidYMid meet">
<metadata>
Created by potrace 1.16, written by Peter Selinger 2001-2019
</metadata>
<g transform="translate(0.000000,380.000000) scale(0.100000,-0.100000)"
fill="#000000" stroke="none">
<path d="M2420 3155 c-319 -56 -610 -225 -803 -465 -343 -429 -390 -1013 -118
-1479 185 -316 467 -526 836 -622 80 -21 113 -24 290 -24 215 0 255 6 409 57
184 61 314 136 461 264 309 270 478 693 436 1093 -49 479 -321 868 -745 1066
-106 50 -263 98 -373 114 -95 14 -299 12 -393 -4z m460 -89 c233 -50 424 -152
598 -320 193 -187 298 -378 358 -656 22 -103 22 -337 0 -453 -72 -378 -319
-701 -666 -873 -461 -228 -1032 -137 -1395 223 -248 246 -368 535 -367 883 1
205 42 378 132 555 64 126 128 211 242 321 180 174 398 287 623 323 39 6 81
13 95 15 53 9 309 -3 380 -18z"/>
<path d="M2585 2708 c-173 -231 -257 -366 -325 -518 -90 -202 -114 -303 -108
-466 2 -92 7 -117 28 -159 49 -98 158 -176 291 -209 36 -9 73 -16 82 -16 15 0
17 -19 19 -162 l3 -163 65 0 65 0 3 163 c2 143 4 162 19 162 9 0 46 7 82 16
133 33 242 111 291 209 21 42 26 67 28 159 6 163 -18 264 -108 466 -68 152
-152 287 -325 518 -22 28 -46 52 -55 52 -9 0 -33 -24 -55 -52z m25 -313 l0
-256 -115 78 c-63 43 -114 82 -115 86 -1 20 212 347 226 347 2 0 4 -115 4
-255z m184 85 c83 -122 114 -176 105 -184 -2 -2 -55 -38 -116 -80 l-113 -77 0
258 0 258 20 -25 c11 -14 58 -81 104 -150z m-303 -322 l119 -82 0 -119 0 -119
-62 44 c-35 25 -111 77 -170 118 -60 40 -108 77 -108 82 0 5 16 45 37 89 25
56 40 78 50 74 8 -3 68 -42 134 -87z m483 12 c20 -43 36 -83 36 -88 0 -9 -21
-24 -212 -156 l-128 -87 0 118 0 118 128 87 c70 48 130 88 133 88 3 0 23 -36
43 -80z m-531 -279 l167 -113 0 -105 c0 -81 -3 -103 -12 -97 -13 7 -379 254
-387 261 -7 5 15 122 28 156 7 19 15 26 24 20 7 -4 88 -59 180 -122z m610 65
c31 -118 41 -104 -175 -251 -104 -71 -194 -131 -199 -133 -5 -2 -9 43 -9 100
l0 103 178 122 c97 67 179 122 182 122 3 1 14 -28 23 -63z m-460 -444 c12 -11
17 -30 17 -69 0 -51 -1 -53 -27 -53 -47 0 -151 29 -204 56 -119 60 -179 153
-179 275 l0 60 188 -127 c103 -70 195 -134 205 -142z m467 95 c-24 -64 -81
-122 -159 -161 -53 -28 -157 -56 -204 -56 -28 0 -28 1 -25 56 l3 57 200 137
200 138 3 -58 c2 -39 -4 -74 -18 -113z"/>
<path d="M4623 2270 c-54 -32 -67 -63 -71 -166 l-4 -94 -29 0 c-26 0 -29 -3
-29 -35 0 -32 2 -35 30 -35 l30 0 0 -215 0 -215 35 0 35 0 2 213 3 212 92 3
93 3 2 -213 3 -213 38 -3 37 -3 0 250 0 251 -135 0 -135 0 0 58 c0 110 32 162
100 162 16 0 20 6 20 30 0 29 -2 30 -42 30 -25 0 -57 -8 -75 -20z"/>
<path d="M5650 2090 l0 -80 -40 0 c-39 0 -40 -1 -40 -35 0 -34 1 -35 40 -35
l40 0 0 -215 0 -215 35 0 35 0 0 215 0 215 61 0 60 0 -3 33 c-3 32 -4 32 -60
35 l-58 3 0 79 0 80 -35 0 -35 0 0 -80z"/>
<path d="M5220 2009 c-14 -6 -40 -24 -57 -42 l-33 -31 0 37 c0 36 -1 37 -35
37 l-35 0 0 -250 0 -250 34 0 34 0 4 163 c3 183 16 225 78 261 40 24 111 24
146 1 46 -30 54 -69 54 -255 l0 -170 36 0 35 0 -3 204 c-3 188 -5 207 -24 233
-44 60 -160 91 -234 62z"/>
<path d="M6075 2004 c-16 -9 -45 -32 -62 -52 l-33 -37 0 48 0 48 -32 -3 -33
-3 -3 -247 -2 -248 34 0 34 0 4 148 c4 159 19 213 69 258 31 28 93 48 125 40
22 -6 24 -4 24 29 l0 35 -47 0 c-27 -1 -61 -8 -78 -16z"/>
<path d="M6362 1994 c-86 -43 -132 -124 -132 -233 0 -111 59 -211 146 -247 41
-17 142 -18 196 -2 37 11 128 80 128 98 0 4 -12 15 -26 25 -26 16 -27 16 -58
-13 -41 -39 -63 -50 -122 -57 -89 -11 -165 48 -189 147 l-7 28 203 2 204 3 -3
50 c-12 177 -183 277 -340 199z m164 -49 c36 -7 78 -47 93 -88 22 -58 25 -57
-149 -57 -180 0 -179 -1 -138 71 31 55 99 94 148 84 8 -2 29 -6 46 -10z"/>
<path d="M6913 1995 c-86 -43 -133 -126 -133 -234 0 -111 59 -211 146 -247 41
-17 142 -18 196 -2 37 11 128 80 128 98 0 4 -12 15 -26 25 -26 16 -27 16 -58
-13 -41 -39 -63 -50 -122 -57 -89 -11 -165 48 -189 147 l-7 28 203 2 204 3 -3
50 c-12 176 -183 277 -339 200z m163 -50 c36 -7 78 -47 93 -88 22 -58 25 -57
-149 -57 -180 0 -179 -1 -138 71 31 55 99 94 148 84 8 -2 29 -6 46 -10z"/>
</g>
</svg>
